%TF.GenerationSoftware,KiCad,Pcbnew,9.0.8+dfsg-1*%
%TF.CreationDate,2026-08-18T23:19:44+06:00*%
%TF.ProjectId,OLL.E fpv_pcb,4f4c4c2e-4520-4667-9076-5f7063622e6b,rev?*%
%TF.SameCoordinates,Original*%
%TF.FileFunction,Copper,L4,Inr*%
%TF.FilePolarity,Positive*%
%FSLAX46Y46*%
G04 Gerber Fmt 4.6, Leading zero omitted, Abs format (unit mm)*
G04 Created by KiCad (PCBNEW 9.0.8+dfsg-1) date 2026-08-18 23:19:44*
%MOMM*%
%LPD*%
G01*
G04 APERTURE LIST*
%TA.AperFunction,ComponentPad*%
%ADD10R,1.000000X1.000000*%
%TD*%
%TA.AperFunction,ComponentPad*%
%ADD11C,1.000000*%
%TD*%
%TA.AperFunction,ComponentPad*%
%ADD12R,0.850000X0.850000*%
%TD*%
%TA.AperFunction,ComponentPad*%
%ADD13C,0.850000*%
%TD*%
%TA.AperFunction,ComponentPad*%
%ADD14O,2.000000X0.900000*%
%TD*%
%TA.AperFunction,ComponentPad*%
%ADD15O,1.700000X0.900000*%
%TD*%
%TA.AperFunction,ComponentPad*%
%ADD16R,1.700000X1.700000*%
%TD*%
%TA.AperFunction,ComponentPad*%
%ADD17C,1.700000*%
%TD*%
%TA.AperFunction,ViaPad*%
%ADD18C,0.600000*%
%TD*%
%TA.AperFunction,ViaPad*%
%ADD19C,0.400000*%
%TD*%
%TA.AperFunction,Conductor*%
%ADD20C,0.300000*%
%TD*%
%TA.AperFunction,Conductor*%
%ADD21C,0.200000*%
%TD*%
%TA.AperFunction,Conductor*%
%ADD22C,0.400000*%
%TD*%
%TA.AperFunction,Conductor*%
%ADD23C,0.600000*%
%TD*%
%TA.AperFunction,Conductor*%
%ADD24C,0.800000*%
%TD*%
G04 APERTURE END LIST*
D10*
%TO.N,+5V_FC*%
%TO.C,J8*%
X163160000Y-73800000D03*
D11*
%TO.N,UART1_TX*%
X164430000Y-73800000D03*
%TO.N,UART1_RX*%
X165700000Y-73800000D03*
%TO.N,GND*%
X166970000Y-73800000D03*
%TD*%
D12*
%TO.N,NRST*%
%TO.C,J10*%
X173700000Y-73500000D03*
D13*
%TO.N,+3V3_FC*%
X172700000Y-73500000D03*
%TO.N,SWDIO*%
X171700000Y-73500000D03*
%TO.N,SWCLK*%
X170700000Y-73500000D03*
%TO.N,GND*%
X169700000Y-73500000D03*
%TD*%
D10*
%TO.N,+3V3_FC*%
%TO.C,J2*%
X148490000Y-112100000D03*
D11*
%TO.N,UART2_TX*%
X149760000Y-112100000D03*
%TO.N,UART2_RX*%
X151030000Y-112100000D03*
%TO.N,GND*%
X152300000Y-112100000D03*
%TD*%
D14*
%TO.N,GND*%
%TO.C,J9*%
X140570000Y-79075000D03*
X140570000Y-87725000D03*
D15*
X136400000Y-79075000D03*
X136400000Y-87725000D03*
%TD*%
D16*
%TO.N,+VBAT*%
%TO.C,M4*%
X157300000Y-74200000D03*
D17*
%TO.N,Net-(C29--)*%
X159840000Y-74200000D03*
%TD*%
D16*
%TO.N,+VBAT*%
%TO.C,BAT1*%
X145000000Y-111800000D03*
D17*
%TO.N,GND*%
X142460000Y-111800000D03*
%TD*%
D16*
%TO.N,+VBAT*%
%TO.C,M1*%
X157560000Y-111700000D03*
D17*
%TO.N,Net-(C26--)*%
X160100000Y-111700000D03*
%TD*%
D16*
%TO.N,+VBAT*%
%TO.C,M2*%
X135200000Y-96200000D03*
D17*
%TO.N,Net-(C27--)*%
X135200000Y-98740000D03*
%TD*%
D16*
%TO.N,+VBAT*%
%TO.C,M3*%
X140825000Y-74100000D03*
D17*
%TO.N,Net-(C28--)*%
X143365000Y-74100000D03*
%TD*%
D18*
%TO.N,GND*%
X160900000Y-105300000D03*
X149200000Y-74600000D03*
X136200000Y-107400000D03*
X134400000Y-93900000D03*
X172100000Y-99800000D03*
X166000000Y-100700000D03*
X162800000Y-99400000D03*
X169700000Y-74700000D03*
X135500000Y-102400000D03*
X178100000Y-100200000D03*
X149000000Y-102000000D03*
D19*
X165700000Y-103400000D03*
D18*
X145700000Y-84800000D03*
X153200000Y-83500000D03*
X146600000Y-91700000D03*
X170500000Y-109075000D03*
X143600000Y-106500000D03*
X140100000Y-88900000D03*
X174400000Y-99051473D03*
X162700000Y-92700000D03*
X148800000Y-79300000D03*
X152900000Y-76900000D03*
X175000000Y-112600000D03*
X143325000Y-87600000D03*
X142800000Y-112900000D03*
X155600000Y-93800000D03*
X169500000Y-104800000D03*
X167400000Y-75000000D03*
X161200000Y-77200000D03*
X178073256Y-102695983D03*
X179625736Y-95300000D03*
X152400000Y-111000000D03*
X166700000Y-78100000D03*
%TO.N,+3V3_FC*%
X176700000Y-83300000D03*
X163400000Y-106400000D03*
X169200000Y-79000000D03*
X152200000Y-92600000D03*
X174500000Y-96300000D03*
X178400000Y-93700000D03*
X163809677Y-96450000D03*
X168200000Y-104500000D03*
X148600000Y-110900000D03*
X166800000Y-79600000D03*
X161000000Y-80600000D03*
X162500000Y-89600000D03*
X174100000Y-78200000D03*
X163200000Y-86375000D03*
%TO.N,+VBAT*%
X136500000Y-96200000D03*
X148363793Y-95464159D03*
X141400000Y-75500000D03*
X144700000Y-81200000D03*
X146100000Y-109500000D03*
X139900000Y-110100000D03*
X144500000Y-96900000D03*
X155000000Y-96300000D03*
X154400000Y-77900000D03*
%TO.N,+3V3_IMU*%
X166584314Y-103284314D03*
X160740645Y-103400000D03*
%TO.N,Net-(C8-+)*%
X153300000Y-89300000D03*
X146055025Y-86155025D03*
%TO.N,Net-(C9--)*%
X149000000Y-84200000D03*
X152700000Y-90500000D03*
X146200000Y-90100000D03*
%TO.N,+5V_FC*%
X163100000Y-74800000D03*
X157100000Y-106300000D03*
X152800000Y-98200000D03*
X171795000Y-107600000D03*
X139300000Y-93625000D03*
X145600000Y-87600000D03*
X137000000Y-100700000D03*
X146500000Y-73600000D03*
X149900000Y-79600000D03*
X154500000Y-99200000D03*
X138700000Y-104000000D03*
X139309620Y-89809620D03*
X144500000Y-91300000D03*
X169479390Y-111300000D03*
X150700000Y-76400000D03*
%TO.N,Net-(C18-+)*%
X146100000Y-99800000D03*
X149400000Y-98700000D03*
%TO.N,Net-(C18--)*%
X145400000Y-95100000D03*
X145550000Y-97650000D03*
X145200000Y-99600000D03*
%TO.N,Net-(C19-+)*%
X145150000Y-98800000D03*
X150251754Y-96650000D03*
%TO.N,Net-(C27--)*%
X136500000Y-98400000D03*
X144800000Y-84500000D03*
%TO.N,Net-(C28--)*%
X159200000Y-76500000D03*
X144700000Y-73900000D03*
X154800000Y-76000000D03*
%TO.N,Net-(C29--)*%
X159900000Y-77700000D03*
X147000000Y-101400000D03*
X147000000Y-101400000D03*
%TO.N,Net-(D7-K)*%
X158800000Y-102700000D03*
X179700000Y-107200000D03*
%TO.N,Net-(C42-+)*%
X159100000Y-85900000D03*
X159800000Y-89500000D03*
%TO.N,Net-(C43-+)*%
X159356239Y-90165642D03*
X156500000Y-85900000D03*
%TO.N,VBUS*%
X142500000Y-80700000D03*
X139600000Y-85400000D03*
%TO.N,UART2_RX*%
X159700000Y-96774265D03*
X151200000Y-110800000D03*
%TO.N,UART2_TX*%
X159500000Y-95900000D03*
X150200000Y-110700000D03*
%TO.N,UART1_TX*%
X164400000Y-74900000D03*
X168400000Y-78200000D03*
%TO.N,UART1_RX*%
X167817814Y-80279245D03*
X165700000Y-74800000D03*
%TO.N,Net-(J9-DN1)*%
X135800000Y-90500000D03*
X135174265Y-85474265D03*
%TO.N,Net-(J9-CC2)*%
X150100000Y-81900000D03*
X142600000Y-85200000D03*
%TO.N,Net-(J9-CC1)*%
X138100000Y-81400000D03*
X139950000Y-77303847D03*
%TO.N,NRST*%
X159814809Y-90821170D03*
X174700000Y-74100000D03*
X173400000Y-80800000D03*
X157200000Y-90000000D03*
%TO.N,Net-(R11-+)*%
X168100000Y-109075000D03*
X170600000Y-112500000D03*
X173674265Y-108974265D03*
%TO.N,Net-(R13--)*%
X144100000Y-92100000D03*
X139600000Y-97600000D03*
%TO.N,Net-(R13-+)*%
X143400000Y-80100000D03*
X143500000Y-94400000D03*
X140600000Y-97600000D03*
X141900000Y-89300000D03*
%TO.N,Net-(R17--)*%
X138800000Y-105600000D03*
X135175000Y-104175000D03*
%TO.N,BARO_CS*%
X171126042Y-105187685D03*
X174600000Y-85400000D03*
X168600000Y-106300000D03*
%TO.N,GYRO_CS*%
X165900000Y-99662156D03*
D19*
X163400000Y-99800000D03*
D18*
%TO.N,BEEPER*%
X180200000Y-100140099D03*
X172900000Y-96200000D03*
D19*
%TO.N,SPI2_SDI*%
X173800000Y-105138241D03*
X172500000Y-105400000D03*
%TO.N,SPI2_SDO*%
X178268199Y-96268199D03*
X177900000Y-95200000D03*
%TO.N,SPI1_SCK*%
X163882322Y-99253034D03*
X164744975Y-100115686D03*
D18*
%TO.N,MOTOR1*%
X169300000Y-96300000D03*
X175200000Y-109600000D03*
%TO.N,MOTOR2*%
X170300000Y-95800000D03*
X138860353Y-95328629D03*
%TO.N,MOTOR3*%
X171300000Y-96300000D03*
X148983378Y-73699999D03*
%TO.N,MOTOR4*%
X171200000Y-99300000D03*
X142900000Y-103759010D03*
%TO.N,USB D\u2212*%
X165000000Y-87900000D03*
X138700000Y-90600000D03*
%TO.N,USB D+*%
X166500000Y-86000000D03*
X138400000Y-88800000D03*
%TO.N,CLK*%
X172500000Y-84100000D03*
%TO.N,C1_D0*%
X154700000Y-103400000D03*
X169000000Y-92300000D03*
X174300000Y-89400000D03*
X154800000Y-105100000D03*
X172769669Y-107169669D03*
X161024265Y-99275735D03*
%TO.N,CMD*%
X168037892Y-100278411D03*
X179000000Y-98500000D03*
X169480938Y-83690192D03*
%TO.N,C1_D1*%
X166000000Y-92200000D03*
X174900000Y-88600000D03*
%TO.N,C1_D2*%
X172700000Y-103600000D03*
X174042784Y-84697113D03*
X171100000Y-103250000D03*
%TO.N,C1_D3*%
X169200000Y-103900000D03*
X172800000Y-104738241D03*
X173300000Y-84400000D03*
%TD*%
D20*
%TO.N,GND*%
X178104017Y-102695983D02*
X178200000Y-102600000D01*
X178200000Y-102600000D02*
X178200000Y-100300000D01*
X176951473Y-99051473D02*
X178100000Y-100200000D01*
D21*
X178200000Y-100300000D02*
X178100000Y-100200000D01*
D20*
X174400000Y-99051473D02*
X176951473Y-99051473D01*
X178073256Y-102695983D02*
X178104017Y-102695983D01*
D22*
%TO.N,+5V_FC*%
X150500000Y-100500000D02*
X142200000Y-100500000D01*
X161250000Y-72950000D02*
X147150000Y-72950000D01*
X147150000Y-72950000D02*
X146500000Y-73600000D01*
X142200000Y-100500000D02*
X138700000Y-104000000D01*
X152800000Y-98200000D02*
X150500000Y-100500000D01*
X163100000Y-74800000D02*
X161250000Y-72950000D01*
%TO.N,Net-(C27--)*%
X137800000Y-97100000D02*
X137800000Y-86351471D01*
X136500000Y-98400000D02*
X137800000Y-97100000D01*
X137800000Y-86351471D02*
X139651471Y-84500000D01*
X139651471Y-84500000D02*
X144800000Y-84500000D01*
D21*
%TO.N,Net-(C29--)*%
X159900000Y-77700000D02*
X159900000Y-77900000D01*
%TO.N,Net-(R11-+)*%
X172448530Y-110200000D02*
X169225000Y-110200000D01*
X173674265Y-108974265D02*
X172448530Y-110200000D01*
X169225000Y-110200000D02*
X168100000Y-109075000D01*
%TO.N,BEEPER*%
X178136396Y-99600000D02*
X175436396Y-96900000D01*
X173600000Y-96900000D02*
X172900000Y-96200000D01*
X179659901Y-99600000D02*
X178136396Y-99600000D01*
X180200000Y-100140099D02*
X179659901Y-99600000D01*
X175436396Y-96900000D02*
X173600000Y-96900000D01*
D23*
%TO.N,MOTOR1*%
X175200000Y-101751471D02*
X172048529Y-98600000D01*
X175200000Y-109600000D02*
X175200000Y-101751471D01*
X171600000Y-98600000D02*
X169300000Y-96300000D01*
X172048529Y-98600000D02*
X171600000Y-98600000D01*
D24*
%TO.N,MOTOR2*%
X138860353Y-95328629D02*
X139595883Y-96064159D01*
X145200000Y-94000000D02*
X148172427Y-94000000D01*
X139595883Y-96064159D02*
X143135841Y-96064159D01*
X143135841Y-96064159D02*
X145200000Y-94000000D01*
D23*
X169500000Y-95000000D02*
X170300000Y-95800000D01*
X168500000Y-95000000D02*
X169500000Y-95000000D01*
X149172427Y-95000000D02*
X168900000Y-95000000D01*
D24*
X148172427Y-94000000D02*
X149172427Y-95000000D01*
D23*
%TO.N,MOTOR3*%
X162200000Y-78000000D02*
X171300000Y-87100000D01*
X154099999Y-73699999D02*
X155950000Y-75550000D01*
X148983378Y-73699999D02*
X154099999Y-73699999D01*
X171300000Y-87100000D02*
X171300000Y-96300000D01*
X162200000Y-76700000D02*
X162200000Y-78000000D01*
X155950000Y-75550000D02*
X161050000Y-75550000D01*
X161050000Y-75550000D02*
X162200000Y-76700000D01*
%TO.N,MOTOR4*%
X166800000Y-104200000D02*
X171200000Y-99800000D01*
X142900000Y-103759010D02*
X143340990Y-104200000D01*
X171200000Y-99800000D02*
X171200000Y-99300000D01*
X143340990Y-104200000D02*
X166800000Y-104200000D01*
D21*
%TO.N,USB D\u2212*%
X144751471Y-90600000D02*
X138700000Y-90600000D01*
X165000000Y-87900000D02*
X147451471Y-87900000D01*
X147451471Y-87900000D02*
X144751471Y-90600000D01*
%TO.N,USB D+*%
X166500000Y-86000000D02*
X165525000Y-86975000D01*
X165525000Y-86975000D02*
X139709340Y-86975000D01*
X139709340Y-86975000D02*
X138400000Y-88284340D01*
X138400000Y-88284340D02*
X138400000Y-88800000D01*
%TO.N,C1_D0*%
X154700000Y-103400000D02*
X154700000Y-102800000D01*
X154700000Y-102800000D02*
X158224265Y-99275735D01*
X156600000Y-106900000D02*
X154800000Y-105100000D01*
X172769669Y-107169669D02*
X172500000Y-106900000D01*
X158224265Y-99275735D02*
X161024265Y-99275735D01*
X172500000Y-106900000D02*
X156600000Y-106900000D01*
%TO.N,CMD*%
X158258579Y-98675735D02*
X166435216Y-98675735D01*
X141565686Y-102634314D02*
X154300000Y-102634314D01*
X169480938Y-84380938D02*
X171900000Y-86800000D01*
X142300000Y-105900000D02*
X140300000Y-103900000D01*
X161800000Y-108200000D02*
X146148529Y-108200000D01*
X169480938Y-83690192D02*
X169480938Y-84380938D01*
X164200000Y-110600000D02*
X161800000Y-108200000D01*
X175800000Y-110300000D02*
X175500000Y-110600000D01*
X172300000Y-95951471D02*
X172300000Y-98002943D01*
X179000000Y-98500000D02*
X176100000Y-95600000D01*
X176100000Y-95600000D02*
X172651471Y-95600000D01*
X154300000Y-102634314D02*
X158258579Y-98675735D01*
X171900000Y-91400000D02*
X179000000Y-98500000D01*
X171900000Y-86800000D02*
X171900000Y-91400000D01*
X140300000Y-103900000D02*
X141565686Y-102634314D01*
X172651471Y-95600000D02*
X172300000Y-95951471D01*
X146148529Y-108200000D02*
X143848529Y-105900000D01*
X172300000Y-98002943D02*
X175800000Y-101502943D01*
X175500000Y-110600000D02*
X164200000Y-110600000D01*
X143848529Y-105900000D02*
X142300000Y-105900000D01*
X166435216Y-98675735D02*
X168037892Y-100278411D01*
X175800000Y-101502943D02*
X175800000Y-110300000D01*
%TO.N,C1_D3*%
X171961759Y-103900000D02*
X169200000Y-103900000D01*
X172800000Y-104738241D02*
X171961759Y-103900000D01*
%TD*%
M02*
