%TF.GenerationSoftware,KiCad,Pcbnew,9.0.8+dfsg-1*%
%TF.CreationDate,2026-08-18T23:19:44+06:00*%
%TF.ProjectId,OLL.E fpv_pcb,4f4c4c2e-4520-4667-9076-5f7063622e6b,rev?*%
%TF.SameCoordinates,Original*%
%TF.FileFunction,Legend,Bot*%
%TF.FilePolarity,Positive*%
%FSLAX46Y46*%
G04 Gerber Fmt 4.6, Leading zero omitted, Abs format (unit mm)*
G04 Created by KiCad (PCBNEW 9.0.8+dfsg-1) date 2026-08-18 23:19:44*
%MOMM*%
%LPD*%
G01*
G04 APERTURE LIST*
%ADD10C,0.150000*%
%ADD11C,0.120000*%
%ADD12C,0.010000*%
G04 APERTURE END LIST*
D10*
X180039580Y-101257142D02*
X180087200Y-101209523D01*
X180087200Y-101209523D02*
X180134819Y-101066666D01*
X180134819Y-101066666D02*
X180134819Y-100971428D01*
X180134819Y-100971428D02*
X180087200Y-100828571D01*
X180087200Y-100828571D02*
X179991961Y-100733333D01*
X179991961Y-100733333D02*
X179896723Y-100685714D01*
X179896723Y-100685714D02*
X179706247Y-100638095D01*
X179706247Y-100638095D02*
X179563390Y-100638095D01*
X179563390Y-100638095D02*
X179372914Y-100685714D01*
X179372914Y-100685714D02*
X179277676Y-100733333D01*
X179277676Y-100733333D02*
X179182438Y-100828571D01*
X179182438Y-100828571D02*
X179134819Y-100971428D01*
X179134819Y-100971428D02*
X179134819Y-101066666D01*
X179134819Y-101066666D02*
X179182438Y-101209523D01*
X179182438Y-101209523D02*
X179230057Y-101257142D01*
X179468152Y-102114285D02*
X180134819Y-102114285D01*
X179087200Y-101876190D02*
X179801485Y-101638095D01*
X179801485Y-101638095D02*
X179801485Y-102257142D01*
X179134819Y-102542857D02*
X179134819Y-103209523D01*
X179134819Y-103209523D02*
X180134819Y-102780952D01*
X177617857Y-107314819D02*
X177951190Y-106838628D01*
X178189285Y-107314819D02*
X178189285Y-106314819D01*
X178189285Y-106314819D02*
X177808333Y-106314819D01*
X177808333Y-106314819D02*
X177713095Y-106362438D01*
X177713095Y-106362438D02*
X177665476Y-106410057D01*
X177665476Y-106410057D02*
X177617857Y-106505295D01*
X177617857Y-106505295D02*
X177617857Y-106648152D01*
X177617857Y-106648152D02*
X177665476Y-106743390D01*
X177665476Y-106743390D02*
X177713095Y-106791009D01*
X177713095Y-106791009D02*
X177808333Y-106838628D01*
X177808333Y-106838628D02*
X178189285Y-106838628D01*
X177284523Y-106314819D02*
X176665476Y-106314819D01*
X176665476Y-106314819D02*
X176998809Y-106695771D01*
X176998809Y-106695771D02*
X176855952Y-106695771D01*
X176855952Y-106695771D02*
X176760714Y-106743390D01*
X176760714Y-106743390D02*
X176713095Y-106791009D01*
X176713095Y-106791009D02*
X176665476Y-106886247D01*
X176665476Y-106886247D02*
X176665476Y-107124342D01*
X176665476Y-107124342D02*
X176713095Y-107219580D01*
X176713095Y-107219580D02*
X176760714Y-107267200D01*
X176760714Y-107267200D02*
X176855952Y-107314819D01*
X176855952Y-107314819D02*
X177141666Y-107314819D01*
X177141666Y-107314819D02*
X177236904Y-107267200D01*
X177236904Y-107267200D02*
X177284523Y-107219580D01*
X176284523Y-106410057D02*
X176236904Y-106362438D01*
X176236904Y-106362438D02*
X176141666Y-106314819D01*
X176141666Y-106314819D02*
X175903571Y-106314819D01*
X175903571Y-106314819D02*
X175808333Y-106362438D01*
X175808333Y-106362438D02*
X175760714Y-106410057D01*
X175760714Y-106410057D02*
X175713095Y-106505295D01*
X175713095Y-106505295D02*
X175713095Y-106600533D01*
X175713095Y-106600533D02*
X175760714Y-106743390D01*
X175760714Y-106743390D02*
X176332142Y-107314819D01*
X176332142Y-107314819D02*
X175713095Y-107314819D01*
X176744819Y-103657142D02*
X176268628Y-103323809D01*
X176744819Y-103085714D02*
X175744819Y-103085714D01*
X175744819Y-103085714D02*
X175744819Y-103466666D01*
X175744819Y-103466666D02*
X175792438Y-103561904D01*
X175792438Y-103561904D02*
X175840057Y-103609523D01*
X175840057Y-103609523D02*
X175935295Y-103657142D01*
X175935295Y-103657142D02*
X176078152Y-103657142D01*
X176078152Y-103657142D02*
X176173390Y-103609523D01*
X176173390Y-103609523D02*
X176221009Y-103561904D01*
X176221009Y-103561904D02*
X176268628Y-103466666D01*
X176268628Y-103466666D02*
X176268628Y-103085714D01*
X175840057Y-104038095D02*
X175792438Y-104085714D01*
X175792438Y-104085714D02*
X175744819Y-104180952D01*
X175744819Y-104180952D02*
X175744819Y-104419047D01*
X175744819Y-104419047D02*
X175792438Y-104514285D01*
X175792438Y-104514285D02*
X175840057Y-104561904D01*
X175840057Y-104561904D02*
X175935295Y-104609523D01*
X175935295Y-104609523D02*
X176030533Y-104609523D01*
X176030533Y-104609523D02*
X176173390Y-104561904D01*
X176173390Y-104561904D02*
X176744819Y-103990476D01*
X176744819Y-103990476D02*
X176744819Y-104609523D01*
X176744819Y-105085714D02*
X176744819Y-105276190D01*
X176744819Y-105276190D02*
X176697200Y-105371428D01*
X176697200Y-105371428D02*
X176649580Y-105419047D01*
X176649580Y-105419047D02*
X176506723Y-105514285D01*
X176506723Y-105514285D02*
X176316247Y-105561904D01*
X176316247Y-105561904D02*
X175935295Y-105561904D01*
X175935295Y-105561904D02*
X175840057Y-105514285D01*
X175840057Y-105514285D02*
X175792438Y-105466666D01*
X175792438Y-105466666D02*
X175744819Y-105371428D01*
X175744819Y-105371428D02*
X175744819Y-105180952D01*
X175744819Y-105180952D02*
X175792438Y-105085714D01*
X175792438Y-105085714D02*
X175840057Y-105038095D01*
X175840057Y-105038095D02*
X175935295Y-104990476D01*
X175935295Y-104990476D02*
X176173390Y-104990476D01*
X176173390Y-104990476D02*
X176268628Y-105038095D01*
X176268628Y-105038095D02*
X176316247Y-105085714D01*
X176316247Y-105085714D02*
X176363866Y-105180952D01*
X176363866Y-105180952D02*
X176363866Y-105371428D01*
X176363866Y-105371428D02*
X176316247Y-105466666D01*
X176316247Y-105466666D02*
X176268628Y-105514285D01*
X176268628Y-105514285D02*
X176173390Y-105561904D01*
X178554819Y-103957142D02*
X178078628Y-103623809D01*
X178554819Y-103385714D02*
X177554819Y-103385714D01*
X177554819Y-103385714D02*
X177554819Y-103766666D01*
X177554819Y-103766666D02*
X177602438Y-103861904D01*
X177602438Y-103861904D02*
X177650057Y-103909523D01*
X177650057Y-103909523D02*
X177745295Y-103957142D01*
X177745295Y-103957142D02*
X177888152Y-103957142D01*
X177888152Y-103957142D02*
X177983390Y-103909523D01*
X177983390Y-103909523D02*
X178031009Y-103861904D01*
X178031009Y-103861904D02*
X178078628Y-103766666D01*
X178078628Y-103766666D02*
X178078628Y-103385714D01*
X177650057Y-104338095D02*
X177602438Y-104385714D01*
X177602438Y-104385714D02*
X177554819Y-104480952D01*
X177554819Y-104480952D02*
X177554819Y-104719047D01*
X177554819Y-104719047D02*
X177602438Y-104814285D01*
X177602438Y-104814285D02*
X177650057Y-104861904D01*
X177650057Y-104861904D02*
X177745295Y-104909523D01*
X177745295Y-104909523D02*
X177840533Y-104909523D01*
X177840533Y-104909523D02*
X177983390Y-104861904D01*
X177983390Y-104861904D02*
X178554819Y-104290476D01*
X178554819Y-104290476D02*
X178554819Y-104909523D01*
X177983390Y-105480952D02*
X177935771Y-105385714D01*
X177935771Y-105385714D02*
X177888152Y-105338095D01*
X177888152Y-105338095D02*
X177792914Y-105290476D01*
X177792914Y-105290476D02*
X177745295Y-105290476D01*
X177745295Y-105290476D02*
X177650057Y-105338095D01*
X177650057Y-105338095D02*
X177602438Y-105385714D01*
X177602438Y-105385714D02*
X177554819Y-105480952D01*
X177554819Y-105480952D02*
X177554819Y-105671428D01*
X177554819Y-105671428D02*
X177602438Y-105766666D01*
X177602438Y-105766666D02*
X177650057Y-105814285D01*
X177650057Y-105814285D02*
X177745295Y-105861904D01*
X177745295Y-105861904D02*
X177792914Y-105861904D01*
X177792914Y-105861904D02*
X177888152Y-105814285D01*
X177888152Y-105814285D02*
X177935771Y-105766666D01*
X177935771Y-105766666D02*
X177983390Y-105671428D01*
X177983390Y-105671428D02*
X177983390Y-105480952D01*
X177983390Y-105480952D02*
X178031009Y-105385714D01*
X178031009Y-105385714D02*
X178078628Y-105338095D01*
X178078628Y-105338095D02*
X178173866Y-105290476D01*
X178173866Y-105290476D02*
X178364342Y-105290476D01*
X178364342Y-105290476D02*
X178459580Y-105338095D01*
X178459580Y-105338095D02*
X178507200Y-105385714D01*
X178507200Y-105385714D02*
X178554819Y-105480952D01*
X178554819Y-105480952D02*
X178554819Y-105671428D01*
X178554819Y-105671428D02*
X178507200Y-105766666D01*
X178507200Y-105766666D02*
X178459580Y-105814285D01*
X178459580Y-105814285D02*
X178364342Y-105861904D01*
X178364342Y-105861904D02*
X178173866Y-105861904D01*
X178173866Y-105861904D02*
X178078628Y-105814285D01*
X178078628Y-105814285D02*
X178031009Y-105766666D01*
X178031009Y-105766666D02*
X177983390Y-105671428D01*
X155442857Y-105754819D02*
X155919047Y-105754819D01*
X155919047Y-105754819D02*
X155919047Y-104754819D01*
X155157142Y-105707200D02*
X155014285Y-105754819D01*
X155014285Y-105754819D02*
X154776190Y-105754819D01*
X154776190Y-105754819D02*
X154680952Y-105707200D01*
X154680952Y-105707200D02*
X154633333Y-105659580D01*
X154633333Y-105659580D02*
X154585714Y-105564342D01*
X154585714Y-105564342D02*
X154585714Y-105469104D01*
X154585714Y-105469104D02*
X154633333Y-105373866D01*
X154633333Y-105373866D02*
X154680952Y-105326247D01*
X154680952Y-105326247D02*
X154776190Y-105278628D01*
X154776190Y-105278628D02*
X154966666Y-105231009D01*
X154966666Y-105231009D02*
X155061904Y-105183390D01*
X155061904Y-105183390D02*
X155109523Y-105135771D01*
X155109523Y-105135771D02*
X155157142Y-105040533D01*
X155157142Y-105040533D02*
X155157142Y-104945295D01*
X155157142Y-104945295D02*
X155109523Y-104850057D01*
X155109523Y-104850057D02*
X155061904Y-104802438D01*
X155061904Y-104802438D02*
X154966666Y-104754819D01*
X154966666Y-104754819D02*
X154728571Y-104754819D01*
X154728571Y-104754819D02*
X154585714Y-104802438D01*
X153633333Y-105754819D02*
X154204761Y-105754819D01*
X153919047Y-105754819D02*
X153919047Y-104754819D01*
X153919047Y-104754819D02*
X154014285Y-104897676D01*
X154014285Y-104897676D02*
X154109523Y-104992914D01*
X154109523Y-104992914D02*
X154204761Y-105040533D01*
X137802094Y-92489819D02*
X137802094Y-91489819D01*
X137802094Y-91489819D02*
X137563999Y-91489819D01*
X137563999Y-91489819D02*
X137421142Y-91537438D01*
X137421142Y-91537438D02*
X137325904Y-91632676D01*
X137325904Y-91632676D02*
X137278285Y-91727914D01*
X137278285Y-91727914D02*
X137230666Y-91918390D01*
X137230666Y-91918390D02*
X137230666Y-92061247D01*
X137230666Y-92061247D02*
X137278285Y-92251723D01*
X137278285Y-92251723D02*
X137325904Y-92346961D01*
X137325904Y-92346961D02*
X137421142Y-92442200D01*
X137421142Y-92442200D02*
X137563999Y-92489819D01*
X137563999Y-92489819D02*
X137802094Y-92489819D01*
X136659237Y-91918390D02*
X136754475Y-91870771D01*
X136754475Y-91870771D02*
X136802094Y-91823152D01*
X136802094Y-91823152D02*
X136849713Y-91727914D01*
X136849713Y-91727914D02*
X136849713Y-91680295D01*
X136849713Y-91680295D02*
X136802094Y-91585057D01*
X136802094Y-91585057D02*
X136754475Y-91537438D01*
X136754475Y-91537438D02*
X136659237Y-91489819D01*
X136659237Y-91489819D02*
X136468761Y-91489819D01*
X136468761Y-91489819D02*
X136373523Y-91537438D01*
X136373523Y-91537438D02*
X136325904Y-91585057D01*
X136325904Y-91585057D02*
X136278285Y-91680295D01*
X136278285Y-91680295D02*
X136278285Y-91727914D01*
X136278285Y-91727914D02*
X136325904Y-91823152D01*
X136325904Y-91823152D02*
X136373523Y-91870771D01*
X136373523Y-91870771D02*
X136468761Y-91918390D01*
X136468761Y-91918390D02*
X136659237Y-91918390D01*
X136659237Y-91918390D02*
X136754475Y-91966009D01*
X136754475Y-91966009D02*
X136802094Y-92013628D01*
X136802094Y-92013628D02*
X136849713Y-92108866D01*
X136849713Y-92108866D02*
X136849713Y-92299342D01*
X136849713Y-92299342D02*
X136802094Y-92394580D01*
X136802094Y-92394580D02*
X136754475Y-92442200D01*
X136754475Y-92442200D02*
X136659237Y-92489819D01*
X136659237Y-92489819D02*
X136468761Y-92489819D01*
X136468761Y-92489819D02*
X136373523Y-92442200D01*
X136373523Y-92442200D02*
X136325904Y-92394580D01*
X136325904Y-92394580D02*
X136278285Y-92299342D01*
X136278285Y-92299342D02*
X136278285Y-92108866D01*
X136278285Y-92108866D02*
X136325904Y-92013628D01*
X136325904Y-92013628D02*
X136373523Y-91966009D01*
X136373523Y-91966009D02*
X136468761Y-91918390D01*
X176754819Y-100632142D02*
X176278628Y-100298809D01*
X176754819Y-100060714D02*
X175754819Y-100060714D01*
X175754819Y-100060714D02*
X175754819Y-100441666D01*
X175754819Y-100441666D02*
X175802438Y-100536904D01*
X175802438Y-100536904D02*
X175850057Y-100584523D01*
X175850057Y-100584523D02*
X175945295Y-100632142D01*
X175945295Y-100632142D02*
X176088152Y-100632142D01*
X176088152Y-100632142D02*
X176183390Y-100584523D01*
X176183390Y-100584523D02*
X176231009Y-100536904D01*
X176231009Y-100536904D02*
X176278628Y-100441666D01*
X176278628Y-100441666D02*
X176278628Y-100060714D01*
X175754819Y-100965476D02*
X175754819Y-101584523D01*
X175754819Y-101584523D02*
X176135771Y-101251190D01*
X176135771Y-101251190D02*
X176135771Y-101394047D01*
X176135771Y-101394047D02*
X176183390Y-101489285D01*
X176183390Y-101489285D02*
X176231009Y-101536904D01*
X176231009Y-101536904D02*
X176326247Y-101584523D01*
X176326247Y-101584523D02*
X176564342Y-101584523D01*
X176564342Y-101584523D02*
X176659580Y-101536904D01*
X176659580Y-101536904D02*
X176707200Y-101489285D01*
X176707200Y-101489285D02*
X176754819Y-101394047D01*
X176754819Y-101394047D02*
X176754819Y-101108333D01*
X176754819Y-101108333D02*
X176707200Y-101013095D01*
X176707200Y-101013095D02*
X176659580Y-100965476D01*
X175754819Y-102203571D02*
X175754819Y-102298809D01*
X175754819Y-102298809D02*
X175802438Y-102394047D01*
X175802438Y-102394047D02*
X175850057Y-102441666D01*
X175850057Y-102441666D02*
X175945295Y-102489285D01*
X175945295Y-102489285D02*
X176135771Y-102536904D01*
X176135771Y-102536904D02*
X176373866Y-102536904D01*
X176373866Y-102536904D02*
X176564342Y-102489285D01*
X176564342Y-102489285D02*
X176659580Y-102441666D01*
X176659580Y-102441666D02*
X176707200Y-102394047D01*
X176707200Y-102394047D02*
X176754819Y-102298809D01*
X176754819Y-102298809D02*
X176754819Y-102203571D01*
X176754819Y-102203571D02*
X176707200Y-102108333D01*
X176707200Y-102108333D02*
X176659580Y-102060714D01*
X176659580Y-102060714D02*
X176564342Y-102013095D01*
X176564342Y-102013095D02*
X176373866Y-101965476D01*
X176373866Y-101965476D02*
X176135771Y-101965476D01*
X176135771Y-101965476D02*
X175945295Y-102013095D01*
X175945295Y-102013095D02*
X175850057Y-102060714D01*
X175850057Y-102060714D02*
X175802438Y-102108333D01*
X175802438Y-102108333D02*
X175754819Y-102203571D01*
X178269580Y-97707142D02*
X178317200Y-97659523D01*
X178317200Y-97659523D02*
X178364819Y-97516666D01*
X178364819Y-97516666D02*
X178364819Y-97421428D01*
X178364819Y-97421428D02*
X178317200Y-97278571D01*
X178317200Y-97278571D02*
X178221961Y-97183333D01*
X178221961Y-97183333D02*
X178126723Y-97135714D01*
X178126723Y-97135714D02*
X177936247Y-97088095D01*
X177936247Y-97088095D02*
X177793390Y-97088095D01*
X177793390Y-97088095D02*
X177602914Y-97135714D01*
X177602914Y-97135714D02*
X177507676Y-97183333D01*
X177507676Y-97183333D02*
X177412438Y-97278571D01*
X177412438Y-97278571D02*
X177364819Y-97421428D01*
X177364819Y-97421428D02*
X177364819Y-97516666D01*
X177364819Y-97516666D02*
X177412438Y-97659523D01*
X177412438Y-97659523D02*
X177460057Y-97707142D01*
X177698152Y-98564285D02*
X178364819Y-98564285D01*
X177317200Y-98326190D02*
X178031485Y-98088095D01*
X178031485Y-98088095D02*
X178031485Y-98707142D01*
X177793390Y-99230952D02*
X177745771Y-99135714D01*
X177745771Y-99135714D02*
X177698152Y-99088095D01*
X177698152Y-99088095D02*
X177602914Y-99040476D01*
X177602914Y-99040476D02*
X177555295Y-99040476D01*
X177555295Y-99040476D02*
X177460057Y-99088095D01*
X177460057Y-99088095D02*
X177412438Y-99135714D01*
X177412438Y-99135714D02*
X177364819Y-99230952D01*
X177364819Y-99230952D02*
X177364819Y-99421428D01*
X177364819Y-99421428D02*
X177412438Y-99516666D01*
X177412438Y-99516666D02*
X177460057Y-99564285D01*
X177460057Y-99564285D02*
X177555295Y-99611904D01*
X177555295Y-99611904D02*
X177602914Y-99611904D01*
X177602914Y-99611904D02*
X177698152Y-99564285D01*
X177698152Y-99564285D02*
X177745771Y-99516666D01*
X177745771Y-99516666D02*
X177793390Y-99421428D01*
X177793390Y-99421428D02*
X177793390Y-99230952D01*
X177793390Y-99230952D02*
X177841009Y-99135714D01*
X177841009Y-99135714D02*
X177888628Y-99088095D01*
X177888628Y-99088095D02*
X177983866Y-99040476D01*
X177983866Y-99040476D02*
X178174342Y-99040476D01*
X178174342Y-99040476D02*
X178269580Y-99088095D01*
X178269580Y-99088095D02*
X178317200Y-99135714D01*
X178317200Y-99135714D02*
X178364819Y-99230952D01*
X178364819Y-99230952D02*
X178364819Y-99421428D01*
X178364819Y-99421428D02*
X178317200Y-99516666D01*
X178317200Y-99516666D02*
X178269580Y-99564285D01*
X178269580Y-99564285D02*
X178174342Y-99611904D01*
X178174342Y-99611904D02*
X177983866Y-99611904D01*
X177983866Y-99611904D02*
X177888628Y-99564285D01*
X177888628Y-99564285D02*
X177841009Y-99516666D01*
X177841009Y-99516666D02*
X177793390Y-99421428D01*
X168933333Y-105654819D02*
X168933333Y-106369104D01*
X168933333Y-106369104D02*
X168980952Y-106511961D01*
X168980952Y-106511961D02*
X169076190Y-106607200D01*
X169076190Y-106607200D02*
X169219047Y-106654819D01*
X169219047Y-106654819D02*
X169314285Y-106654819D01*
X167933333Y-106654819D02*
X168504761Y-106654819D01*
X168219047Y-106654819D02*
X168219047Y-105654819D01*
X168219047Y-105654819D02*
X168314285Y-105797676D01*
X168314285Y-105797676D02*
X168409523Y-105892914D01*
X168409523Y-105892914D02*
X168504761Y-105940533D01*
X180284819Y-97632142D02*
X179808628Y-97298809D01*
X180284819Y-97060714D02*
X179284819Y-97060714D01*
X179284819Y-97060714D02*
X179284819Y-97441666D01*
X179284819Y-97441666D02*
X179332438Y-97536904D01*
X179332438Y-97536904D02*
X179380057Y-97584523D01*
X179380057Y-97584523D02*
X179475295Y-97632142D01*
X179475295Y-97632142D02*
X179618152Y-97632142D01*
X179618152Y-97632142D02*
X179713390Y-97584523D01*
X179713390Y-97584523D02*
X179761009Y-97536904D01*
X179761009Y-97536904D02*
X179808628Y-97441666D01*
X179808628Y-97441666D02*
X179808628Y-97060714D01*
X179284819Y-97965476D02*
X179284819Y-98584523D01*
X179284819Y-98584523D02*
X179665771Y-98251190D01*
X179665771Y-98251190D02*
X179665771Y-98394047D01*
X179665771Y-98394047D02*
X179713390Y-98489285D01*
X179713390Y-98489285D02*
X179761009Y-98536904D01*
X179761009Y-98536904D02*
X179856247Y-98584523D01*
X179856247Y-98584523D02*
X180094342Y-98584523D01*
X180094342Y-98584523D02*
X180189580Y-98536904D01*
X180189580Y-98536904D02*
X180237200Y-98489285D01*
X180237200Y-98489285D02*
X180284819Y-98394047D01*
X180284819Y-98394047D02*
X180284819Y-98108333D01*
X180284819Y-98108333D02*
X180237200Y-98013095D01*
X180237200Y-98013095D02*
X180189580Y-97965476D01*
X180284819Y-99536904D02*
X180284819Y-98965476D01*
X180284819Y-99251190D02*
X179284819Y-99251190D01*
X179284819Y-99251190D02*
X179427676Y-99155952D01*
X179427676Y-99155952D02*
X179522914Y-99060714D01*
X179522914Y-99060714D02*
X179570533Y-98965476D01*
D11*
%TO.C,C47*%
X179190000Y-101965580D02*
X179190000Y-101684420D01*
X180210000Y-101965580D02*
X180210000Y-101684420D01*
%TO.C,R32*%
X177137258Y-106277500D02*
X176662742Y-106277500D01*
X177137258Y-107322500D02*
X176662742Y-107322500D01*
%TO.C,R29*%
X175777500Y-104137742D02*
X175777500Y-104612258D01*
X176822500Y-104137742D02*
X176822500Y-104612258D01*
%TO.C,R28*%
X177577500Y-104762258D02*
X177577500Y-104287742D01*
X178622500Y-104762258D02*
X178622500Y-104287742D01*
%TO.C,LS1*%
X150300000Y-100900000D02*
X150300000Y-103100000D01*
X150300000Y-107900000D02*
X150300000Y-110100000D01*
X150300000Y-110100000D02*
X159500000Y-110100000D01*
X159500000Y-100900000D02*
X150300000Y-100900000D01*
X159500000Y-100900000D02*
X159500000Y-103100000D01*
X159500000Y-103100000D02*
X159900000Y-103100000D01*
X159500000Y-107900000D02*
X159500000Y-110100000D01*
%TO.C,D8*%
X140810000Y-90350000D02*
X135300000Y-90350000D01*
X140810000Y-90350000D02*
X140810000Y-93650000D01*
X140810000Y-93650000D02*
X135300000Y-93650000D01*
%TO.C,R30*%
X175777500Y-101037742D02*
X175777500Y-101512258D01*
X176822500Y-101037742D02*
X176822500Y-101512258D01*
%TO.C,C48*%
X177490000Y-98284420D02*
X177490000Y-98565580D01*
X178510000Y-98284420D02*
X178510000Y-98565580D01*
%TO.C,J1*%
X161485000Y-108625000D02*
X161485000Y-103025000D01*
X161485000Y-111875000D02*
X161485000Y-113035000D01*
X161485000Y-113035000D02*
X172745000Y-113035000D01*
X174245000Y-113035000D02*
X174355000Y-113035000D01*
X174355000Y-109325000D02*
X174355000Y-103025000D01*
X174355000Y-113035000D02*
X174355000Y-111225000D01*
%TO.C,R31*%
X179277500Y-98637258D02*
X179277500Y-98162742D01*
X180322500Y-98637258D02*
X180322500Y-98162742D01*
D12*
%TO.C,REF\u002A\u002A*%
X156737275Y-89468931D02*
X156821095Y-89913555D01*
X157439667Y-90168551D01*
X157810707Y-89916246D01*
X157884144Y-89866506D01*
X157981499Y-89801218D01*
X158065787Y-89745454D01*
X158132631Y-89702078D01*
X158177654Y-89673953D01*
X158196478Y-89663942D01*
X158208039Y-89671061D01*
X158242596Y-89700894D01*
X158294894Y-89749852D01*
X158360500Y-89813440D01*
X158434983Y-89887163D01*
X158513913Y-89966525D01*
X158592856Y-90047031D01*
X158667384Y-90124185D01*
X158733063Y-90193493D01*
X158785463Y-90250457D01*
X158820153Y-90290584D01*
X158832701Y-90309377D01*
X158829782Y-90317451D01*
X158809571Y-90353469D01*
X158772663Y-90412744D01*
X158722050Y-90490630D01*
X158660725Y-90582481D01*
X158591679Y-90683650D01*
X158553787Y-90738826D01*
X158488606Y-90834884D01*
X158432723Y-90918717D01*
X158389117Y-90985777D01*
X158360769Y-91031519D01*
X158350657Y-91051396D01*
X158350823Y-91052497D01*
X158359743Y-91077694D01*
X158380206Y-91129147D01*
X158409360Y-91200135D01*
X158444353Y-91283935D01*
X158482332Y-91373828D01*
X158520445Y-91463091D01*
X158555839Y-91545003D01*
X158585662Y-91612843D01*
X158607061Y-91659890D01*
X158617184Y-91679422D01*
X158623174Y-91681155D01*
X158659566Y-91688969D01*
X158724427Y-91701915D01*
X158812565Y-91718979D01*
X158918787Y-91739151D01*
X159037902Y-91761418D01*
X159100683Y-91773223D01*
X159215912Y-91795748D01*
X159316662Y-91816550D01*
X159397426Y-91834435D01*
X159452698Y-91848208D01*
X159476971Y-91856674D01*
X159481331Y-91865066D01*
X159488563Y-91906072D01*
X159494246Y-91974368D01*
X159498382Y-92063529D01*
X159500977Y-92167128D01*
X159502036Y-92278740D01*
X159501561Y-92391938D01*
X159499559Y-92500296D01*
X159496033Y-92597389D01*
X159490987Y-92676790D01*
X159484427Y-92732072D01*
X159476356Y-92756810D01*
X159471458Y-92759600D01*
X159434930Y-92771569D01*
X159371565Y-92787405D01*
X159288686Y-92805374D01*
X159193618Y-92823741D01*
X159161542Y-92829591D01*
X159013393Y-92856798D01*
X158896961Y-92878663D01*
X158808209Y-92896093D01*
X158743103Y-92909996D01*
X158697606Y-92921277D01*
X158667682Y-92930843D01*
X158649294Y-92939601D01*
X158638407Y-92948457D01*
X158637142Y-92949943D01*
X158619338Y-92980931D01*
X158592994Y-93037634D01*
X158560661Y-93113399D01*
X158524893Y-93201574D01*
X158488244Y-93295507D01*
X158453266Y-93388547D01*
X158422513Y-93474041D01*
X158398538Y-93545336D01*
X158383895Y-93595782D01*
X158381136Y-93618726D01*
X158382981Y-93621703D01*
X158402075Y-93650493D01*
X158437984Y-93703595D01*
X158487378Y-93776117D01*
X158546927Y-93863167D01*
X158613303Y-93959854D01*
X158631520Y-93986456D01*
X158695577Y-94081875D01*
X158750937Y-94167212D01*
X158794439Y-94237405D01*
X158822924Y-94287394D01*
X158833232Y-94312116D01*
X158831011Y-94318616D01*
X158807858Y-94350644D01*
X158762177Y-94402945D01*
X158697241Y-94471999D01*
X158616319Y-94554286D01*
X158522685Y-94646286D01*
X158469165Y-94697781D01*
X158384542Y-94777983D01*
X158310475Y-94846678D01*
X158250941Y-94900252D01*
X158209917Y-94935085D01*
X158191381Y-94947563D01*
X158178646Y-94942938D01*
X158139436Y-94921057D01*
X158082495Y-94885273D01*
X158015250Y-94840117D01*
X157967438Y-94807165D01*
X157871985Y-94741727D01*
X157770125Y-94672228D01*
X157677088Y-94609075D01*
X157494832Y-94485800D01*
X157341841Y-94568520D01*
X157305817Y-94587613D01*
X157240303Y-94620272D01*
X157189640Y-94642819D01*
X157162564Y-94651226D01*
X157153703Y-94640430D01*
X157131699Y-94599323D01*
X157099199Y-94531549D01*
X157058010Y-94441409D01*
X157009942Y-94333205D01*
X156956802Y-94211237D01*
X156900399Y-94079808D01*
X156842542Y-93943218D01*
X156785038Y-93805767D01*
X156729697Y-93671758D01*
X156678326Y-93545491D01*
X156632735Y-93431268D01*
X156594732Y-93333390D01*
X156566124Y-93256157D01*
X156548721Y-93203871D01*
X156544331Y-93180833D01*
X156544628Y-93180160D01*
X156565077Y-93158863D01*
X156607850Y-93125508D01*
X156664117Y-93087011D01*
X156681877Y-93075256D01*
X156817014Y-92963735D01*
X156928856Y-92830906D01*
X157014755Y-92682298D01*
X157072062Y-92523440D01*
X157098131Y-92359860D01*
X157090313Y-92197088D01*
X157058644Y-92052315D01*
X157001782Y-91906124D01*
X156918888Y-91775703D01*
X156805131Y-91651813D01*
X156760433Y-91612235D01*
X156615935Y-91514723D01*
X156459838Y-91449050D01*
X156296667Y-91414630D01*
X156130943Y-91410874D01*
X155967192Y-91437194D01*
X155809936Y-91493003D01*
X155663698Y-91577714D01*
X155533004Y-91690737D01*
X155422374Y-91831487D01*
X155401105Y-91866342D01*
X155328810Y-92025655D01*
X155290415Y-92191552D01*
X155284914Y-92359737D01*
X155311301Y-92525913D01*
X155368570Y-92685784D01*
X155455717Y-92835053D01*
X155571736Y-92969423D01*
X155715622Y-93084599D01*
X155720294Y-93087702D01*
X155775964Y-93126933D01*
X155817689Y-93160286D01*
X155836746Y-93180833D01*
X155834342Y-93196941D01*
X155819391Y-93243844D01*
X155792881Y-93316539D01*
X155756620Y-93410725D01*
X155712416Y-93522098D01*
X155662076Y-93646358D01*
X155607407Y-93779202D01*
X155550218Y-93916327D01*
X155492316Y-94053432D01*
X155435510Y-94186215D01*
X155381606Y-94310374D01*
X155332412Y-94421606D01*
X155289737Y-94515609D01*
X155255387Y-94588082D01*
X155231171Y-94634722D01*
X155218897Y-94651226D01*
X155208689Y-94648991D01*
X155168586Y-94632926D01*
X155109318Y-94604759D01*
X155039619Y-94568520D01*
X154886629Y-94485800D01*
X154704373Y-94609075D01*
X154650527Y-94645579D01*
X154550374Y-94713784D01*
X154450525Y-94782098D01*
X154366211Y-94840117D01*
X154319679Y-94871736D01*
X154259200Y-94911020D01*
X154214357Y-94937912D01*
X154192455Y-94947883D01*
X154183045Y-94943650D01*
X154149031Y-94917721D01*
X154096595Y-94872070D01*
X154030301Y-94811186D01*
X153954713Y-94739561D01*
X153874396Y-94661683D01*
X153793913Y-94582045D01*
X153717829Y-94505135D01*
X153650707Y-94435445D01*
X153597112Y-94377464D01*
X153561608Y-94335684D01*
X153548759Y-94314593D01*
X153549500Y-94310581D01*
X153564793Y-94277920D01*
X153597462Y-94221412D01*
X153644350Y-94146163D01*
X153702301Y-94057275D01*
X153768157Y-93959854D01*
X153786627Y-93932982D01*
X153851482Y-93838423D01*
X153908609Y-93754827D01*
X153954678Y-93687084D01*
X153986359Y-93640086D01*
X154000324Y-93618726D01*
X154000668Y-93617811D01*
X153996546Y-93591678D01*
X153980807Y-93538740D01*
X153956004Y-93465647D01*
X153924689Y-93379052D01*
X153889417Y-93285608D01*
X153852740Y-93191965D01*
X153817212Y-93104777D01*
X153785386Y-93030695D01*
X153759816Y-92976371D01*
X153743053Y-92948457D01*
X153741374Y-92946724D01*
X153729372Y-92937956D01*
X153709103Y-92929115D01*
X153676529Y-92919292D01*
X153627616Y-92907583D01*
X153558327Y-92893080D01*
X153464625Y-92874876D01*
X153342476Y-92852066D01*
X153187842Y-92823741D01*
X153155770Y-92817780D01*
X153063893Y-92799352D01*
X152986607Y-92781892D01*
X152931236Y-92767133D01*
X152905105Y-92756810D01*
X152900733Y-92748197D01*
X152893445Y-92706826D01*
X152887669Y-92638241D01*
X152883410Y-92548868D01*
X152880673Y-92445135D01*
X152879462Y-92333465D01*
X152879782Y-92220287D01*
X152881636Y-92112026D01*
X152885030Y-92015108D01*
X152889967Y-91935959D01*
X152896452Y-91881006D01*
X152904489Y-91856674D01*
X152912696Y-91853079D01*
X152953519Y-91841748D01*
X153022524Y-91825722D01*
X153114203Y-91806195D01*
X153223050Y-91784362D01*
X153343558Y-91761418D01*
X153409357Y-91749159D01*
X153522135Y-91727901D01*
X153619207Y-91709287D01*
X153695382Y-91694328D01*
X153745469Y-91684036D01*
X153764276Y-91679422D01*
X153764983Y-91678471D01*
X153776961Y-91654310D01*
X153799794Y-91603694D01*
X153830630Y-91533338D01*
X153866613Y-91449958D01*
X153904891Y-91360270D01*
X153942609Y-91270989D01*
X153976913Y-91188832D01*
X154004949Y-91120513D01*
X154023864Y-91072748D01*
X154030803Y-91052254D01*
X154027742Y-91045043D01*
X154007372Y-91010728D01*
X153970422Y-90952970D01*
X153919860Y-90876299D01*
X153858657Y-90785248D01*
X153789781Y-90684350D01*
X153751994Y-90629093D01*
X153686782Y-90532215D01*
X153630871Y-90447193D01*
X153587241Y-90378662D01*
X153558877Y-90331260D01*
X153548759Y-90309623D01*
X153555790Y-90297887D01*
X153585197Y-90262818D01*
X153633441Y-90209745D01*
X153696093Y-90143164D01*
X153768725Y-90067574D01*
X153846908Y-89987472D01*
X153926214Y-89907354D01*
X154002213Y-89831718D01*
X154070478Y-89765062D01*
X154126580Y-89711882D01*
X154166090Y-89676676D01*
X154184579Y-89663942D01*
X154194843Y-89668893D01*
X154232530Y-89691857D01*
X154293348Y-89730938D01*
X154372913Y-89783272D01*
X154466843Y-89845996D01*
X154570754Y-89916246D01*
X154941794Y-90168551D01*
X155251080Y-90041053D01*
X155560365Y-89913555D01*
X155644186Y-89468931D01*
X155728006Y-89024307D01*
X156653454Y-89024307D01*
X156737275Y-89468931D01*
G36*
X156737275Y-89468931D02*
G01*
X156821095Y-89913555D01*
X157439667Y-90168551D01*
X157810707Y-89916246D01*
X157884144Y-89866506D01*
X157981499Y-89801218D01*
X158065787Y-89745454D01*
X158132631Y-89702078D01*
X158177654Y-89673953D01*
X158196478Y-89663942D01*
X158208039Y-89671061D01*
X158242596Y-89700894D01*
X158294894Y-89749852D01*
X158360500Y-89813440D01*
X158434983Y-89887163D01*
X158513913Y-89966525D01*
X158592856Y-90047031D01*
X158667384Y-90124185D01*
X158733063Y-90193493D01*
X158785463Y-90250457D01*
X158820153Y-90290584D01*
X158832701Y-90309377D01*
X158829782Y-90317451D01*
X158809571Y-90353469D01*
X158772663Y-90412744D01*
X158722050Y-90490630D01*
X158660725Y-90582481D01*
X158591679Y-90683650D01*
X158553787Y-90738826D01*
X158488606Y-90834884D01*
X158432723Y-90918717D01*
X158389117Y-90985777D01*
X158360769Y-91031519D01*
X158350657Y-91051396D01*
X158350823Y-91052497D01*
X158359743Y-91077694D01*
X158380206Y-91129147D01*
X158409360Y-91200135D01*
X158444353Y-91283935D01*
X158482332Y-91373828D01*
X158520445Y-91463091D01*
X158555839Y-91545003D01*
X158585662Y-91612843D01*
X158607061Y-91659890D01*
X158617184Y-91679422D01*
X158623174Y-91681155D01*
X158659566Y-91688969D01*
X158724427Y-91701915D01*
X158812565Y-91718979D01*
X158918787Y-91739151D01*
X159037902Y-91761418D01*
X159100683Y-91773223D01*
X159215912Y-91795748D01*
X159316662Y-91816550D01*
X159397426Y-91834435D01*
X159452698Y-91848208D01*
X159476971Y-91856674D01*
X159481331Y-91865066D01*
X159488563Y-91906072D01*
X159494246Y-91974368D01*
X159498382Y-92063529D01*
X159500977Y-92167128D01*
X159502036Y-92278740D01*
X159501561Y-92391938D01*
X159499559Y-92500296D01*
X159496033Y-92597389D01*
X159490987Y-92676790D01*
X159484427Y-92732072D01*
X159476356Y-92756810D01*
X159471458Y-92759600D01*
X159434930Y-92771569D01*
X159371565Y-92787405D01*
X159288686Y-92805374D01*
X159193618Y-92823741D01*
X159161542Y-92829591D01*
X159013393Y-92856798D01*
X158896961Y-92878663D01*
X158808209Y-92896093D01*
X158743103Y-92909996D01*
X158697606Y-92921277D01*
X158667682Y-92930843D01*
X158649294Y-92939601D01*
X158638407Y-92948457D01*
X158637142Y-92949943D01*
X158619338Y-92980931D01*
X158592994Y-93037634D01*
X158560661Y-93113399D01*
X158524893Y-93201574D01*
X158488244Y-93295507D01*
X158453266Y-93388547D01*
X158422513Y-93474041D01*
X158398538Y-93545336D01*
X158383895Y-93595782D01*
X158381136Y-93618726D01*
X158382981Y-93621703D01*
X158402075Y-93650493D01*
X158437984Y-93703595D01*
X158487378Y-93776117D01*
X158546927Y-93863167D01*
X158613303Y-93959854D01*
X158631520Y-93986456D01*
X158695577Y-94081875D01*
X158750937Y-94167212D01*
X158794439Y-94237405D01*
X158822924Y-94287394D01*
X158833232Y-94312116D01*
X158831011Y-94318616D01*
X158807858Y-94350644D01*
X158762177Y-94402945D01*
X158697241Y-94471999D01*
X158616319Y-94554286D01*
X158522685Y-94646286D01*
X158469165Y-94697781D01*
X158384542Y-94777983D01*
X158310475Y-94846678D01*
X158250941Y-94900252D01*
X158209917Y-94935085D01*
X158191381Y-94947563D01*
X158178646Y-94942938D01*
X158139436Y-94921057D01*
X158082495Y-94885273D01*
X158015250Y-94840117D01*
X157967438Y-94807165D01*
X157871985Y-94741727D01*
X157770125Y-94672228D01*
X157677088Y-94609075D01*
X157494832Y-94485800D01*
X157341841Y-94568520D01*
X157305817Y-94587613D01*
X157240303Y-94620272D01*
X157189640Y-94642819D01*
X157162564Y-94651226D01*
X157153703Y-94640430D01*
X157131699Y-94599323D01*
X157099199Y-94531549D01*
X157058010Y-94441409D01*
X157009942Y-94333205D01*
X156956802Y-94211237D01*
X156900399Y-94079808D01*
X156842542Y-93943218D01*
X156785038Y-93805767D01*
X156729697Y-93671758D01*
X156678326Y-93545491D01*
X156632735Y-93431268D01*
X156594732Y-93333390D01*
X156566124Y-93256157D01*
X156548721Y-93203871D01*
X156544331Y-93180833D01*
X156544628Y-93180160D01*
X156565077Y-93158863D01*
X156607850Y-93125508D01*
X156664117Y-93087011D01*
X156681877Y-93075256D01*
X156817014Y-92963735D01*
X156928856Y-92830906D01*
X157014755Y-92682298D01*
X157072062Y-92523440D01*
X157098131Y-92359860D01*
X157090313Y-92197088D01*
X157058644Y-92052315D01*
X157001782Y-91906124D01*
X156918888Y-91775703D01*
X156805131Y-91651813D01*
X156760433Y-91612235D01*
X156615935Y-91514723D01*
X156459838Y-91449050D01*
X156296667Y-91414630D01*
X156130943Y-91410874D01*
X155967192Y-91437194D01*
X155809936Y-91493003D01*
X155663698Y-91577714D01*
X155533004Y-91690737D01*
X155422374Y-91831487D01*
X155401105Y-91866342D01*
X155328810Y-92025655D01*
X155290415Y-92191552D01*
X155284914Y-92359737D01*
X155311301Y-92525913D01*
X155368570Y-92685784D01*
X155455717Y-92835053D01*
X155571736Y-92969423D01*
X155715622Y-93084599D01*
X155720294Y-93087702D01*
X155775964Y-93126933D01*
X155817689Y-93160286D01*
X155836746Y-93180833D01*
X155834342Y-93196941D01*
X155819391Y-93243844D01*
X155792881Y-93316539D01*
X155756620Y-93410725D01*
X155712416Y-93522098D01*
X155662076Y-93646358D01*
X155607407Y-93779202D01*
X155550218Y-93916327D01*
X155492316Y-94053432D01*
X155435510Y-94186215D01*
X155381606Y-94310374D01*
X155332412Y-94421606D01*
X155289737Y-94515609D01*
X155255387Y-94588082D01*
X155231171Y-94634722D01*
X155218897Y-94651226D01*
X155208689Y-94648991D01*
X155168586Y-94632926D01*
X155109318Y-94604759D01*
X155039619Y-94568520D01*
X154886629Y-94485800D01*
X154704373Y-94609075D01*
X154650527Y-94645579D01*
X154550374Y-94713784D01*
X154450525Y-94782098D01*
X154366211Y-94840117D01*
X154319679Y-94871736D01*
X154259200Y-94911020D01*
X154214357Y-94937912D01*
X154192455Y-94947883D01*
X154183045Y-94943650D01*
X154149031Y-94917721D01*
X154096595Y-94872070D01*
X154030301Y-94811186D01*
X153954713Y-94739561D01*
X153874396Y-94661683D01*
X153793913Y-94582045D01*
X153717829Y-94505135D01*
X153650707Y-94435445D01*
X153597112Y-94377464D01*
X153561608Y-94335684D01*
X153548759Y-94314593D01*
X153549500Y-94310581D01*
X153564793Y-94277920D01*
X153597462Y-94221412D01*
X153644350Y-94146163D01*
X153702301Y-94057275D01*
X153768157Y-93959854D01*
X153786627Y-93932982D01*
X153851482Y-93838423D01*
X153908609Y-93754827D01*
X153954678Y-93687084D01*
X153986359Y-93640086D01*
X154000324Y-93618726D01*
X154000668Y-93617811D01*
X153996546Y-93591678D01*
X153980807Y-93538740D01*
X153956004Y-93465647D01*
X153924689Y-93379052D01*
X153889417Y-93285608D01*
X153852740Y-93191965D01*
X153817212Y-93104777D01*
X153785386Y-93030695D01*
X153759816Y-92976371D01*
X153743053Y-92948457D01*
X153741374Y-92946724D01*
X153729372Y-92937956D01*
X153709103Y-92929115D01*
X153676529Y-92919292D01*
X153627616Y-92907583D01*
X153558327Y-92893080D01*
X153464625Y-92874876D01*
X153342476Y-92852066D01*
X153187842Y-92823741D01*
X153155770Y-92817780D01*
X153063893Y-92799352D01*
X152986607Y-92781892D01*
X152931236Y-92767133D01*
X152905105Y-92756810D01*
X152900733Y-92748197D01*
X152893445Y-92706826D01*
X152887669Y-92638241D01*
X152883410Y-92548868D01*
X152880673Y-92445135D01*
X152879462Y-92333465D01*
X152879782Y-92220287D01*
X152881636Y-92112026D01*
X152885030Y-92015108D01*
X152889967Y-91935959D01*
X152896452Y-91881006D01*
X152904489Y-91856674D01*
X152912696Y-91853079D01*
X152953519Y-91841748D01*
X153022524Y-91825722D01*
X153114203Y-91806195D01*
X153223050Y-91784362D01*
X153343558Y-91761418D01*
X153409357Y-91749159D01*
X153522135Y-91727901D01*
X153619207Y-91709287D01*
X153695382Y-91694328D01*
X153745469Y-91684036D01*
X153764276Y-91679422D01*
X153764983Y-91678471D01*
X153776961Y-91654310D01*
X153799794Y-91603694D01*
X153830630Y-91533338D01*
X153866613Y-91449958D01*
X153904891Y-91360270D01*
X153942609Y-91270989D01*
X153976913Y-91188832D01*
X154004949Y-91120513D01*
X154023864Y-91072748D01*
X154030803Y-91052254D01*
X154027742Y-91045043D01*
X154007372Y-91010728D01*
X153970422Y-90952970D01*
X153919860Y-90876299D01*
X153858657Y-90785248D01*
X153789781Y-90684350D01*
X153751994Y-90629093D01*
X153686782Y-90532215D01*
X153630871Y-90447193D01*
X153587241Y-90378662D01*
X153558877Y-90331260D01*
X153548759Y-90309623D01*
X153555790Y-90297887D01*
X153585197Y-90262818D01*
X153633441Y-90209745D01*
X153696093Y-90143164D01*
X153768725Y-90067574D01*
X153846908Y-89987472D01*
X153926214Y-89907354D01*
X154002213Y-89831718D01*
X154070478Y-89765062D01*
X154126580Y-89711882D01*
X154166090Y-89676676D01*
X154184579Y-89663942D01*
X154194843Y-89668893D01*
X154232530Y-89691857D01*
X154293348Y-89730938D01*
X154372913Y-89783272D01*
X154466843Y-89845996D01*
X154570754Y-89916246D01*
X154941794Y-90168551D01*
X155251080Y-90041053D01*
X155560365Y-89913555D01*
X155644186Y-89468931D01*
X155728006Y-89024307D01*
X156653454Y-89024307D01*
X156737275Y-89468931D01*
G37*
%TD*%
M02*
