%TF.GenerationSoftware,KiCad,Pcbnew,9.0.8+dfsg-1*%
%TF.CreationDate,2026-08-21T17:39:14+06:00*%
%TF.ProjectId,OLL.E fpv_pcb,4f4c4c2e-4520-4667-9076-5f7063622e6b,rev?*%
%TF.SameCoordinates,Original*%
%TF.FileFunction,Soldermask,Top*%
%TF.FilePolarity,Negative*%
%FSLAX46Y46*%
G04 Gerber Fmt 4.6, Leading zero omitted, Abs format (unit mm)*
G04 Created by KiCad (PCBNEW 9.0.8+dfsg-1) date 2026-08-21 17:39:14*
%MOMM*%
%LPD*%
G01*
G04 APERTURE LIST*
G04 Aperture macros list*
%AMRoundRect*
0 Rectangle with rounded corners*
0 $1 Rounding radius*
0 $2 $3 $4 $5 $6 $7 $8 $9 X,Y pos of 4 corners*
0 Add a 4 corners polygon primitive as box body*
4,1,4,$2,$3,$4,$5,$6,$7,$8,$9,$2,$3,0*
0 Add four circle primitives for the rounded corners*
1,1,$1+$1,$2,$3*
1,1,$1+$1,$4,$5*
1,1,$1+$1,$6,$7*
1,1,$1+$1,$8,$9*
0 Add four rect primitives between the rounded corners*
20,1,$1+$1,$2,$3,$4,$5,0*
20,1,$1+$1,$4,$5,$6,$7,0*
20,1,$1+$1,$6,$7,$8,$9,0*
20,1,$1+$1,$8,$9,$2,$3,0*%
G04 Aperture macros list end*
%ADD10C,0.010000*%
%ADD11RoundRect,0.225000X0.250000X-0.225000X0.250000X0.225000X-0.250000X0.225000X-0.250000X-0.225000X0*%
%ADD12RoundRect,0.225000X0.225000X0.250000X-0.225000X0.250000X-0.225000X-0.250000X0.225000X-0.250000X0*%
%ADD13RoundRect,0.200000X0.200000X0.275000X-0.200000X0.275000X-0.200000X-0.275000X0.200000X-0.275000X0*%
%ADD14R,1.000000X1.000000*%
%ADD15C,1.000000*%
%ADD16RoundRect,0.200000X-0.200000X-0.275000X0.200000X-0.275000X0.200000X0.275000X-0.200000X0.275000X0*%
%ADD17RoundRect,0.150000X0.150000X-0.512500X0.150000X0.512500X-0.150000X0.512500X-0.150000X-0.512500X0*%
%ADD18R,0.850000X0.850000*%
%ADD19C,0.850000*%
%ADD20RoundRect,0.225000X-0.225000X-0.250000X0.225000X-0.250000X0.225000X0.250000X-0.225000X0.250000X0*%
%ADD21RoundRect,0.200000X0.275000X-0.200000X0.275000X0.200000X-0.275000X0.200000X-0.275000X-0.200000X0*%
%ADD22RoundRect,0.125000X-0.537500X-0.125000X0.537500X-0.125000X0.537500X0.125000X-0.537500X0.125000X0*%
%ADD23RoundRect,0.237500X0.237500X-0.287500X0.237500X0.287500X-0.237500X0.287500X-0.237500X-0.287500X0*%
%ADD24RoundRect,0.250000X-0.550000X0.350000X-0.550000X-0.350000X0.550000X-0.350000X0.550000X0.350000X0*%
%ADD25RoundRect,0.150000X-0.512500X-0.150000X0.512500X-0.150000X0.512500X0.150000X-0.512500X0.150000X0*%
%ADD26RoundRect,0.250000X-0.650000X0.325000X-0.650000X-0.325000X0.650000X-0.325000X0.650000X0.325000X0*%
%ADD27RoundRect,0.200000X-0.275000X0.200000X-0.275000X-0.200000X0.275000X-0.200000X0.275000X0.200000X0*%
%ADD28C,2.100000*%
%ADD29R,0.500000X0.350000*%
%ADD30C,0.600000*%
%ADD31O,2.204000X1.104000*%
%ADD32O,1.904000X1.104000*%
%ADD33R,1.700000X1.700000*%
%ADD34C,1.700000*%
%ADD35RoundRect,0.218750X-0.256250X0.218750X-0.256250X-0.218750X0.256250X-0.218750X0.256250X0.218750X0*%
%ADD36R,1.000000X1.800000*%
%ADD37RoundRect,0.225000X-0.250000X0.225000X-0.250000X-0.225000X0.250000X-0.225000X0.250000X0.225000X0*%
%ADD38RoundRect,0.062500X-0.387500X-0.062500X0.387500X-0.062500X0.387500X0.062500X-0.387500X0.062500X0*%
%ADD39R,1.500000X2.250000*%
%ADD40RoundRect,0.250000X0.650000X-1.000000X0.650000X1.000000X-0.650000X1.000000X-0.650000X-1.000000X0*%
%ADD41RoundRect,0.218750X0.218750X0.256250X-0.218750X0.256250X-0.218750X-0.256250X0.218750X-0.256250X0*%
%ADD42RoundRect,0.062500X0.387500X0.062500X-0.387500X0.062500X-0.387500X-0.062500X0.387500X-0.062500X0*%
%ADD43RoundRect,0.250000X-1.000000X-0.650000X1.000000X-0.650000X1.000000X0.650000X-1.000000X0.650000X0*%
%ADD44R,1.700000X0.900000*%
%ADD45RoundRect,0.100000X0.100000X-0.217500X0.100000X0.217500X-0.100000X0.217500X-0.100000X-0.217500X0*%
%ADD46RoundRect,0.050000X-0.112500X-0.050000X0.112500X-0.050000X0.112500X0.050000X-0.112500X0.050000X0*%
%ADD47RoundRect,0.050000X-0.050000X-0.112500X0.050000X-0.112500X0.050000X0.112500X-0.050000X0.112500X0*%
%ADD48RoundRect,0.075000X-0.725000X-0.075000X0.725000X-0.075000X0.725000X0.075000X-0.725000X0.075000X0*%
%ADD49RoundRect,0.075000X-0.075000X-0.725000X0.075000X-0.725000X0.075000X0.725000X-0.075000X0.725000X0*%
%ADD50RoundRect,0.100000X-0.100000X0.217500X-0.100000X-0.217500X0.100000X-0.217500X0.100000X0.217500X0*%
%ADD51RoundRect,0.225000X0.225000X0.375000X-0.225000X0.375000X-0.225000X-0.375000X0.225000X-0.375000X0*%
%ADD52RoundRect,0.150000X-0.587500X-0.150000X0.587500X-0.150000X0.587500X0.150000X-0.587500X0.150000X0*%
%ADD53RoundRect,0.250000X0.350000X0.550000X-0.350000X0.550000X-0.350000X-0.550000X0.350000X-0.550000X0*%
G04 APERTURE END LIST*
D10*
%TO.C,J9*%
X141770000Y-80550000D02*
X140530000Y-80550000D01*
X140530000Y-79850000D01*
X141770000Y-79850000D01*
X141770000Y-80550000D01*
G36*
X141770000Y-80550000D02*
G01*
X140530000Y-80550000D01*
X140530000Y-79850000D01*
X141770000Y-79850000D01*
X141770000Y-80550000D01*
G37*
X141770000Y-81350000D02*
X140530000Y-81350000D01*
X140530000Y-80650000D01*
X141770000Y-80650000D01*
X141770000Y-81350000D01*
G36*
X141770000Y-81350000D02*
G01*
X140530000Y-81350000D01*
X140530000Y-80650000D01*
X141770000Y-80650000D01*
X141770000Y-81350000D01*
G37*
X141770000Y-81850000D02*
X140530000Y-81850000D01*
X140530000Y-81450000D01*
X141770000Y-81450000D01*
X141770000Y-81850000D01*
G36*
X141770000Y-81850000D02*
G01*
X140530000Y-81850000D01*
X140530000Y-81450000D01*
X141770000Y-81450000D01*
X141770000Y-81850000D01*
G37*
X141770000Y-82350000D02*
X140530000Y-82350000D01*
X140530000Y-81950000D01*
X141770000Y-81950000D01*
X141770000Y-82350000D01*
G36*
X141770000Y-82350000D02*
G01*
X140530000Y-82350000D01*
X140530000Y-81950000D01*
X141770000Y-81950000D01*
X141770000Y-82350000D01*
G37*
X141770000Y-82850000D02*
X140530000Y-82850000D01*
X140530000Y-82450000D01*
X141770000Y-82450000D01*
X141770000Y-82850000D01*
G36*
X141770000Y-82850000D02*
G01*
X140530000Y-82850000D01*
X140530000Y-82450000D01*
X141770000Y-82450000D01*
X141770000Y-82850000D01*
G37*
X141770000Y-83350000D02*
X140530000Y-83350000D01*
X140530000Y-82950000D01*
X141770000Y-82950000D01*
X141770000Y-83350000D01*
G36*
X141770000Y-83350000D02*
G01*
X140530000Y-83350000D01*
X140530000Y-82950000D01*
X141770000Y-82950000D01*
X141770000Y-83350000D01*
G37*
X141770000Y-83850000D02*
X140530000Y-83850000D01*
X140530000Y-83450000D01*
X141770000Y-83450000D01*
X141770000Y-83850000D01*
G36*
X141770000Y-83850000D02*
G01*
X140530000Y-83850000D01*
X140530000Y-83450000D01*
X141770000Y-83450000D01*
X141770000Y-83850000D01*
G37*
X141770000Y-84350000D02*
X140530000Y-84350000D01*
X140530000Y-83950000D01*
X141770000Y-83950000D01*
X141770000Y-84350000D01*
G36*
X141770000Y-84350000D02*
G01*
X140530000Y-84350000D01*
X140530000Y-83950000D01*
X141770000Y-83950000D01*
X141770000Y-84350000D01*
G37*
X141770000Y-84850000D02*
X140530000Y-84850000D01*
X140530000Y-84450000D01*
X141770000Y-84450000D01*
X141770000Y-84850000D01*
G36*
X141770000Y-84850000D02*
G01*
X140530000Y-84850000D01*
X140530000Y-84450000D01*
X141770000Y-84450000D01*
X141770000Y-84850000D01*
G37*
X141770000Y-85350000D02*
X140530000Y-85350000D01*
X140530000Y-84950000D01*
X141770000Y-84950000D01*
X141770000Y-85350000D01*
G36*
X141770000Y-85350000D02*
G01*
X140530000Y-85350000D01*
X140530000Y-84950000D01*
X141770000Y-84950000D01*
X141770000Y-85350000D01*
G37*
X141770000Y-86150000D02*
X140530000Y-86150000D01*
X140530000Y-85450000D01*
X141770000Y-85450000D01*
X141770000Y-86150000D01*
G36*
X141770000Y-86150000D02*
G01*
X140530000Y-86150000D01*
X140530000Y-85450000D01*
X141770000Y-85450000D01*
X141770000Y-86150000D01*
G37*
X141770000Y-86950000D02*
X140530000Y-86950000D01*
X140530000Y-86250000D01*
X141770000Y-86250000D01*
X141770000Y-86950000D01*
G36*
X141770000Y-86950000D02*
G01*
X140530000Y-86950000D01*
X140530000Y-86250000D01*
X141770000Y-86250000D01*
X141770000Y-86950000D01*
G37*
%TD*%
D11*
%TO.C,C10*%
X153200000Y-85850000D03*
X153200000Y-84300000D03*
%TD*%
D12*
%TO.C,C14*%
X143650000Y-97125000D03*
X142100000Y-97125000D03*
%TD*%
D13*
%TO.C,R6*%
X157325000Y-97900000D03*
X155675000Y-97900000D03*
%TD*%
D14*
%TO.C,J8*%
X163160000Y-73800000D03*
D15*
X164430000Y-73800000D03*
X165700000Y-73800000D03*
X166970000Y-73800000D03*
%TD*%
D16*
%TO.C,R9*%
X147500000Y-100000000D03*
X149150000Y-100000000D03*
%TD*%
D17*
%TO.C,U7*%
X138450000Y-98637500D03*
X139400000Y-98637500D03*
X140350000Y-98637500D03*
X140350000Y-96362500D03*
X139400000Y-96362500D03*
X138450000Y-96362500D03*
%TD*%
D13*
%TO.C,R11*%
X178225000Y-107500000D03*
X176575000Y-107500000D03*
%TD*%
D18*
%TO.C,J10*%
X173700000Y-73500000D03*
D19*
X172700000Y-73500000D03*
X171700000Y-73500000D03*
X170700000Y-73500000D03*
X169700000Y-73500000D03*
%TD*%
D14*
%TO.C,J2*%
X148490000Y-112100000D03*
D15*
X149760000Y-112100000D03*
X151030000Y-112100000D03*
X152300000Y-112100000D03*
%TD*%
D16*
%TO.C,R23*%
X139050000Y-77400000D03*
X140700000Y-77400000D03*
%TD*%
D20*
%TO.C,C35*%
X150425000Y-77100000D03*
X151975000Y-77100000D03*
%TD*%
D21*
%TO.C,R20*%
X166800000Y-101600000D03*
X166800000Y-99950000D03*
%TD*%
D11*
%TO.C,C16*%
X151700000Y-97800000D03*
X151700000Y-96250000D03*
%TD*%
D22*
%TO.C,U1*%
X147262500Y-88825000D03*
X147262500Y-89475000D03*
X147262500Y-90125000D03*
X147262500Y-90775000D03*
X149537500Y-90775000D03*
X149537500Y-90125000D03*
X149537500Y-89475000D03*
X149537500Y-88825000D03*
%TD*%
D12*
%TO.C,C40*%
X158100000Y-93800000D03*
X156550000Y-93800000D03*
%TD*%
%TO.C,C45*%
X135900000Y-93000000D03*
X134350000Y-93000000D03*
%TD*%
D21*
%TO.C,R4*%
X179000000Y-92825000D03*
X179000000Y-91175000D03*
%TD*%
D23*
%TO.C,L2*%
X151700000Y-90750000D03*
X151700000Y-89000000D03*
%TD*%
D24*
%TO.C,fb2*%
X154600000Y-90700000D03*
X154600000Y-92300000D03*
%TD*%
D25*
%TO.C,U9*%
X147800000Y-73200000D03*
X147800000Y-74150000D03*
X147800000Y-75100000D03*
X150075000Y-75100000D03*
X150075000Y-74150000D03*
X150075000Y-73200000D03*
%TD*%
D20*
%TO.C,C22*%
X143325000Y-88500000D03*
X144875000Y-88500000D03*
%TD*%
D26*
%TO.C,C1bulk1*%
X149900000Y-102900000D03*
X149900000Y-105850000D03*
%TD*%
D27*
%TO.C,R18*%
X136200000Y-104750000D03*
X136200000Y-106400000D03*
%TD*%
D28*
%TO.C,H3*%
X136400000Y-110700000D03*
%TD*%
D11*
%TO.C,C46*%
X138000000Y-94450000D03*
X138000000Y-92900000D03*
%TD*%
D21*
%TO.C,R3*%
X154800000Y-89025000D03*
X154800000Y-87375000D03*
%TD*%
D29*
%TO.C,U13*%
X171900000Y-104100000D03*
X171900000Y-104750000D03*
X171900000Y-105400000D03*
X171900000Y-106050000D03*
X170300000Y-106050000D03*
X170300000Y-105400000D03*
X170300000Y-104750000D03*
X170300000Y-104100000D03*
%TD*%
D20*
%TO.C,C33*%
X140025000Y-93800000D03*
X141575000Y-93800000D03*
%TD*%
%TO.C,C23*%
X163525000Y-103700000D03*
X165075000Y-103700000D03*
%TD*%
D12*
%TO.C,C18*%
X145850000Y-100500000D03*
X144300000Y-100500000D03*
%TD*%
D21*
%TO.C,R17*%
X134600000Y-106400000D03*
X134600000Y-104750000D03*
%TD*%
D11*
%TO.C,C11*%
X154800000Y-85850000D03*
X154800000Y-84300000D03*
%TD*%
D30*
%TO.C,J9*%
X140080000Y-80510000D03*
X140080000Y-86290000D03*
D31*
X140570000Y-79075000D03*
X140570000Y-87725000D03*
D32*
X136400000Y-79075000D03*
X136400000Y-87725000D03*
%TD*%
D20*
%TO.C,C36*%
X134650000Y-101500000D03*
X136200000Y-101500000D03*
%TD*%
%TO.C,C27*%
X143325000Y-86100000D03*
X144875000Y-86100000D03*
%TD*%
D11*
%TO.C,C7*%
X165900000Y-79675000D03*
X165900000Y-78125000D03*
%TD*%
D13*
%TO.C,R14*%
X141725000Y-90500000D03*
X140075000Y-90500000D03*
%TD*%
D11*
%TO.C,C21*%
X172200000Y-102475000D03*
X172200000Y-100925000D03*
%TD*%
D21*
%TO.C,R27*%
X179800000Y-99450000D03*
X179800000Y-97800000D03*
%TD*%
D33*
%TO.C,M4*%
X157300000Y-74200000D03*
D34*
X159840000Y-74200000D03*
%TD*%
D35*
%TO.C,D2*%
X179000000Y-88000000D03*
X179000000Y-89575000D03*
%TD*%
D21*
%TO.C,R13*%
X143200000Y-93450000D03*
X143200000Y-91800000D03*
%TD*%
%TO.C,R8*%
X149300000Y-94150000D03*
X149300000Y-92500000D03*
%TD*%
D36*
%TO.C,Y2*%
X159050000Y-84650000D03*
X156550000Y-84650000D03*
%TD*%
D37*
%TO.C,C30*%
X169400000Y-107600000D03*
X169400000Y-109150000D03*
%TD*%
%TO.C,C4*%
X161900000Y-103750000D03*
X161900000Y-105300000D03*
%TD*%
D38*
%TO.C,U10*%
X151775000Y-73285000D03*
X151775000Y-73935000D03*
X151775000Y-74585000D03*
X151775000Y-75235000D03*
X154575000Y-75235000D03*
X154575000Y-74585000D03*
X154575000Y-73935000D03*
X154575000Y-73285000D03*
D39*
X153175000Y-74260000D03*
%TD*%
D20*
%TO.C,C12*%
X155725000Y-99500000D03*
X157275000Y-99500000D03*
%TD*%
D23*
%TO.C,L1*%
X145400000Y-94075000D03*
X145400000Y-92325000D03*
%TD*%
D11*
%TO.C,C5*%
X161900000Y-108350000D03*
X161900000Y-106800000D03*
%TD*%
%TO.C,C25*%
X166800000Y-104875000D03*
X166800000Y-103325000D03*
%TD*%
D21*
%TO.C,R19*%
X167000000Y-108050000D03*
X167000000Y-106400000D03*
%TD*%
D20*
%TO.C,C41*%
X156525000Y-90600000D03*
X158075000Y-90600000D03*
%TD*%
D27*
%TO.C,R12*%
X167700000Y-109775000D03*
X167700000Y-111425000D03*
%TD*%
D25*
%TO.C,U15*%
X134700000Y-89400000D03*
X134700000Y-90350000D03*
X134700000Y-91300000D03*
X136975000Y-91300000D03*
X136975000Y-90350000D03*
X136975000Y-89400000D03*
%TD*%
D37*
%TO.C,C20*%
X170300000Y-100900000D03*
X170300000Y-102450000D03*
%TD*%
D20*
%TO.C,C34*%
X150425000Y-78700000D03*
X151975000Y-78700000D03*
%TD*%
D28*
%TO.C,H2*%
X178000000Y-75200000D03*
%TD*%
D26*
%TO.C,C2bulk1*%
X152400000Y-102900000D03*
X152400000Y-105850000D03*
%TD*%
D12*
%TO.C,C19*%
X143650000Y-98800000D03*
X142100000Y-98800000D03*
%TD*%
D28*
%TO.C,H4*%
X178000000Y-110700000D03*
%TD*%
D25*
%TO.C,U5*%
X171525000Y-110700000D03*
X171525000Y-111650000D03*
X171525000Y-112600000D03*
X173800000Y-112600000D03*
X173800000Y-111650000D03*
X173800000Y-110700000D03*
%TD*%
D12*
%TO.C,C15*%
X143650000Y-95500000D03*
X142100000Y-95500000D03*
%TD*%
D40*
%TO.C,D6*%
X146400000Y-107100000D03*
X146400000Y-103100000D03*
%TD*%
D41*
%TO.C,D1*%
X158087500Y-87300000D03*
X156512500Y-87300000D03*
%TD*%
D20*
%TO.C,C6*%
X162700000Y-76700000D03*
X164250000Y-76700000D03*
%TD*%
D42*
%TO.C,U6*%
X165575000Y-112135000D03*
X165575000Y-111485000D03*
X165575000Y-110835000D03*
X165575000Y-110185000D03*
X162775000Y-110185000D03*
X162775000Y-110835000D03*
X162775000Y-111485000D03*
X162775000Y-112135000D03*
D39*
X164175000Y-111160000D03*
%TD*%
D43*
%TO.C,D5*%
X154400000Y-79300000D03*
X158400000Y-79300000D03*
%TD*%
D20*
%TO.C,C43*%
X154625000Y-82000000D03*
X156175000Y-82000000D03*
%TD*%
%TO.C,C2*%
X162625000Y-78200000D03*
X164175000Y-78200000D03*
%TD*%
D44*
%TO.C,SW1*%
X170000000Y-79800000D03*
X170000000Y-76400000D03*
%TD*%
D21*
%TO.C,R15*%
X147200000Y-78500000D03*
X147200000Y-76850000D03*
%TD*%
D20*
%TO.C,C37*%
X134650000Y-103100000D03*
X136200000Y-103100000D03*
%TD*%
D13*
%TO.C,R5*%
X157325000Y-96300000D03*
X155675000Y-96300000D03*
%TD*%
D20*
%TO.C,C28*%
X156625000Y-76700000D03*
X158175000Y-76700000D03*
%TD*%
D45*
%TO.C,VCAP1*%
X173500000Y-100707500D03*
X173500000Y-99892500D03*
%TD*%
D46*
%TO.C,U4*%
X163487500Y-101112500D03*
X163487500Y-101462500D03*
X163487500Y-101812500D03*
X163487500Y-102162500D03*
D47*
X163900000Y-102400000D03*
X164250000Y-102400000D03*
X164600000Y-102400000D03*
D46*
X165012500Y-102162500D03*
X165012500Y-101812500D03*
X165012500Y-101462500D03*
X165012500Y-101112500D03*
D47*
X164600000Y-100875000D03*
X164250000Y-100875000D03*
X163900000Y-100875000D03*
%TD*%
D48*
%TO.C,U14*%
X161125000Y-84075000D03*
X161125000Y-84575000D03*
X161125000Y-85075000D03*
X161125000Y-85575000D03*
X161125000Y-86075000D03*
X161125000Y-86575000D03*
X161125000Y-87075000D03*
X161125000Y-87575000D03*
X161125000Y-88075000D03*
X161125000Y-88575000D03*
X161125000Y-89075000D03*
X161125000Y-89575000D03*
X161125000Y-90075000D03*
X161125000Y-90575000D03*
X161125000Y-91075000D03*
X161125000Y-91575000D03*
X161125000Y-92075000D03*
X161125000Y-92575000D03*
X161125000Y-93075000D03*
X161125000Y-93575000D03*
X161125000Y-94075000D03*
X161125000Y-94575000D03*
X161125000Y-95075000D03*
X161125000Y-95575000D03*
X161125000Y-96075000D03*
D49*
X162800000Y-97750000D03*
X163300000Y-97750000D03*
X163800000Y-97750000D03*
X164300000Y-97750000D03*
X164800000Y-97750000D03*
X165300000Y-97750000D03*
X165800000Y-97750000D03*
X166300000Y-97750000D03*
X166800000Y-97750000D03*
X167300000Y-97750000D03*
X167800000Y-97750000D03*
X168300000Y-97750000D03*
X168800000Y-97750000D03*
X169300000Y-97750000D03*
X169800000Y-97750000D03*
X170300000Y-97750000D03*
X170800000Y-97750000D03*
X171300000Y-97750000D03*
X171800000Y-97750000D03*
X172300000Y-97750000D03*
X172800000Y-97750000D03*
X173300000Y-97750000D03*
X173800000Y-97750000D03*
X174300000Y-97750000D03*
X174800000Y-97750000D03*
D48*
X176475000Y-96075000D03*
X176475000Y-95575000D03*
X176475000Y-95075000D03*
X176475000Y-94575000D03*
X176475000Y-94075000D03*
X176475000Y-93575000D03*
X176475000Y-93075000D03*
X176475000Y-92575000D03*
X176475000Y-92075000D03*
X176475000Y-91575000D03*
X176475000Y-91075000D03*
X176475000Y-90575000D03*
X176475000Y-90075000D03*
X176475000Y-89575000D03*
X176475000Y-89075000D03*
X176475000Y-88575000D03*
X176475000Y-88075000D03*
X176475000Y-87575000D03*
X176475000Y-87075000D03*
X176475000Y-86575000D03*
X176475000Y-86075000D03*
X176475000Y-85575000D03*
X176475000Y-85075000D03*
X176475000Y-84575000D03*
X176475000Y-84075000D03*
D49*
X174800000Y-82400000D03*
X174300000Y-82400000D03*
X173800000Y-82400000D03*
X173300000Y-82400000D03*
X172800000Y-82400000D03*
X172300000Y-82400000D03*
X171800000Y-82400000D03*
X171300000Y-82400000D03*
X170800000Y-82400000D03*
X170300000Y-82400000D03*
X169800000Y-82400000D03*
X169300000Y-82400000D03*
X168800000Y-82400000D03*
X168300000Y-82400000D03*
X167800000Y-82400000D03*
X167300000Y-82400000D03*
X166800000Y-82400000D03*
X166300000Y-82400000D03*
X165800000Y-82400000D03*
X165300000Y-82400000D03*
X164800000Y-82400000D03*
X164300000Y-82400000D03*
X163800000Y-82400000D03*
X163300000Y-82400000D03*
X162800000Y-82400000D03*
%TD*%
D11*
%TO.C,C8*%
X146800000Y-86775000D03*
X146800000Y-85225000D03*
%TD*%
D12*
%TO.C,C38*%
X158075000Y-92200000D03*
X156525000Y-92200000D03*
%TD*%
D33*
%TO.C,BAT1*%
X145000000Y-111800000D03*
D34*
X142460000Y-111800000D03*
%TD*%
D43*
%TO.C,D4*%
X143600000Y-82400000D03*
X147600000Y-82400000D03*
%TD*%
D44*
%TO.C,SW2*%
X173600000Y-79800000D03*
X173600000Y-76400000D03*
%TD*%
D27*
%TO.C,R16*%
X148800000Y-76900000D03*
X148800000Y-78550000D03*
%TD*%
D50*
%TO.C,VCAP2*%
X179000000Y-85925000D03*
X179000000Y-86740000D03*
%TD*%
D22*
%TO.C,U3*%
X147100000Y-96000000D03*
X147100000Y-96650000D03*
X147100000Y-97300000D03*
X147100000Y-97950000D03*
X149375000Y-97950000D03*
X149375000Y-97300000D03*
X149375000Y-96650000D03*
X149375000Y-96000000D03*
%TD*%
D43*
%TO.C,D3*%
X155500000Y-107700000D03*
X159500000Y-107700000D03*
%TD*%
D21*
%TO.C,R10*%
X147575000Y-94125000D03*
X147575000Y-92475000D03*
%TD*%
D37*
%TO.C,C39*%
X169450000Y-110700000D03*
X169450000Y-112250000D03*
%TD*%
D13*
%TO.C,R25*%
X151700000Y-83600000D03*
X150050000Y-83600000D03*
%TD*%
D20*
%TO.C,C24*%
X163525000Y-105400000D03*
X165075000Y-105400000D03*
%TD*%
D33*
%TO.C,M1*%
X157560000Y-111700000D03*
D34*
X160100000Y-111700000D03*
%TD*%
D28*
%TO.C,H1*%
X136400000Y-75200000D03*
%TD*%
D11*
%TO.C,C26*%
X154900000Y-112000000D03*
X154900000Y-110450000D03*
%TD*%
D16*
%TO.C,R21*%
X156475000Y-89000000D03*
X158125000Y-89000000D03*
%TD*%
D38*
%TO.C,U8*%
X142825000Y-77465000D03*
X142825000Y-78115000D03*
X142825000Y-78765000D03*
X142825000Y-79415000D03*
X145625000Y-79415000D03*
X145625000Y-78765000D03*
X145625000Y-78115000D03*
X145625000Y-77465000D03*
D39*
X144225000Y-78440000D03*
%TD*%
D20*
%TO.C,C29*%
X139450000Y-108300000D03*
X141000000Y-108300000D03*
%TD*%
%TO.C,C42*%
X157725000Y-82000000D03*
X159275000Y-82000000D03*
%TD*%
D25*
%TO.C,U11*%
X140162500Y-104650000D03*
X140162500Y-105600000D03*
X140162500Y-106550000D03*
X142437500Y-106550000D03*
X142437500Y-105600000D03*
X142437500Y-104650000D03*
%TD*%
D37*
%TO.C,C17*%
X151700000Y-99450000D03*
X151700000Y-101000000D03*
%TD*%
D12*
%TO.C,C44*%
X144900000Y-90100000D03*
X143350000Y-90100000D03*
%TD*%
D38*
%TO.C,U12*%
X139700000Y-100925000D03*
X139700000Y-101575000D03*
X139700000Y-102225000D03*
X139700000Y-102875000D03*
X142500000Y-102875000D03*
X142500000Y-102225000D03*
X142500000Y-101575000D03*
X142500000Y-100925000D03*
D39*
X141100000Y-101900000D03*
%TD*%
D33*
%TO.C,M2*%
X135200000Y-96200000D03*
D34*
X135200000Y-98740000D03*
%TD*%
D27*
%TO.C,R2*%
X151600000Y-85075000D03*
X151600000Y-86725000D03*
%TD*%
D51*
%TO.C,D7*%
X179750000Y-105400000D03*
X176450000Y-105400000D03*
%TD*%
D21*
%TO.C,R26*%
X179700000Y-96200000D03*
X179700000Y-94550000D03*
%TD*%
D52*
%TO.C,Q1*%
X177262500Y-101150000D03*
X177262500Y-103050000D03*
X179137500Y-102100000D03*
%TD*%
D13*
%TO.C,R24*%
X151850000Y-81000000D03*
X150200000Y-81000000D03*
%TD*%
D21*
%TO.C,R1*%
X148400000Y-86800000D03*
X148400000Y-85150000D03*
%TD*%
D11*
%TO.C,C3*%
X161000000Y-79650000D03*
X161000000Y-78100000D03*
%TD*%
D53*
%TO.C,fb1*%
X165200000Y-107400000D03*
X163600000Y-107400000D03*
%TD*%
D20*
%TO.C,C1*%
X162625000Y-79800000D03*
X164175000Y-79800000D03*
%TD*%
%TO.C,C31*%
X140025000Y-92200000D03*
X141575000Y-92200000D03*
%TD*%
D11*
%TO.C,C32*%
X168700000Y-102650000D03*
X168700000Y-101100000D03*
%TD*%
D33*
%TO.C,M3*%
X140825000Y-74100000D03*
D34*
X143365000Y-74100000D03*
%TD*%
D11*
%TO.C,C9*%
X150000000Y-86700000D03*
X150000000Y-85150000D03*
%TD*%
D16*
%TO.C,R22*%
X165950000Y-76500000D03*
X167600000Y-76500000D03*
%TD*%
M02*
