M48
; DRILL file {KiCad 9.0.8+dfsg-1} date 2026-08-21T17:39:11+0600
; FORMAT={-:-/ absolute / metric / decimal}
; #@! TF.CreationDate,2026-08-21T17:39:11+06:00
; #@! TF.GenerationSoftware,Kicad,Pcbnew,9.0.8+dfsg-1
; #@! TF.FileFunction,Plated,1,6,PTH
FMAT,2
METRIC
; #@! TA.AperFunction,Plated,PTH,ViaDrill
T1C0.200
; #@! TA.AperFunction,Plated,PTH,ViaDrill
T2C0.300
; #@! TA.AperFunction,Plated,PTH,ComponentDrill
T3C0.500
; #@! TA.AperFunction,Plated,PTH,ComponentDrill
T4C0.600
; #@! TA.AperFunction,Plated,PTH,ComponentDrill
T5C0.650
; #@! TA.AperFunction,Plated,PTH,ComponentDrill
T6C1.000
%
G90
G05
T1
X163.4Y-99.8
X163.882Y-99.253
X164.745Y-100.116
X165.7Y-103.4
X172.5Y-105.4
X173.8Y-105.138
X177.9Y-95.2
X178.268Y-96.268
T2
X134.4Y-93.9
X135.174Y-85.474
X135.175Y-104.175
X135.5Y-102.4
X135.8Y-90.5
X136.2Y-107.4
X136.5Y-96.2
X136.5Y-98.4
X137.0Y-100.7
X138.1Y-81.4
X138.4Y-88.8
X138.7Y-90.6
X138.7Y-104.0
X138.8Y-105.6
X138.86Y-95.329
X139.3Y-93.625
X139.31Y-89.81
X139.6Y-85.4
X139.6Y-97.6
X139.9Y-110.1
X139.95Y-77.304
X140.1Y-88.9
X140.6Y-97.6
X141.4Y-75.5
X141.9Y-89.3
X142.5Y-80.7
X142.6Y-85.2
X142.8Y-112.9
X142.9Y-103.759
X143.325Y-87.6
X143.4Y-80.1
X143.5Y-94.4
X143.6Y-106.5
X144.1Y-92.1
X144.5Y-91.3
X144.5Y-96.9
X144.7Y-73.9
X144.7Y-81.2
X144.8Y-84.5
X145.15Y-98.8
X145.2Y-99.6
X145.4Y-95.1
X145.55Y-97.65
X145.6Y-87.6
X145.7Y-84.8
X146.055Y-86.155
X146.1Y-99.8
X146.1Y-109.5
X146.2Y-90.1
X146.5Y-73.6
X146.6Y-91.7
X147.0Y-101.4
X147.0Y-101.4
X148.364Y-95.464
X148.6Y-110.9
X148.8Y-79.3
X148.983Y-73.7
X149.0Y-84.2
X149.0Y-102.0
X149.2Y-74.6
X149.4Y-98.7
X149.9Y-79.6
X150.1Y-81.9
X150.2Y-110.7
X150.252Y-96.65
X150.7Y-76.4
X151.2Y-110.8
X152.2Y-92.6
X152.4Y-111.0
X152.7Y-90.5
X152.8Y-98.2
X152.9Y-76.9
X153.2Y-83.5
X153.3Y-89.3
X154.4Y-77.9
X154.5Y-99.2
X154.7Y-103.4
X154.8Y-76.0
X154.8Y-105.1
X155.0Y-96.3
X155.6Y-93.8
X156.5Y-85.9
X157.1Y-106.3
X157.2Y-90.0
X158.8Y-102.7
X159.1Y-85.9
X159.2Y-76.5
X159.356Y-90.166
X159.5Y-95.9
X159.7Y-96.774
X159.8Y-89.5
X159.815Y-90.821
X159.9Y-77.7
X160.741Y-103.4
X160.9Y-105.3
X161.0Y-80.6
X161.024Y-99.276
X161.2Y-77.2
X162.5Y-89.6
X162.7Y-92.7
X162.8Y-99.4
X163.1Y-74.8
X163.2Y-86.375
X163.4Y-106.4
X163.81Y-96.45
X164.4Y-74.9
X165.0Y-87.9
X165.7Y-74.8
X165.9Y-99.662
X166.0Y-92.2
X166.0Y-100.7
X166.5Y-86.0
X166.584Y-103.284
X166.7Y-78.1
X166.8Y-79.6
X167.4Y-75.0
X167.818Y-80.279
X168.038Y-100.278
X168.1Y-109.075
X168.2Y-104.5
X168.4Y-78.2
X168.6Y-106.3
X169.0Y-92.3
X169.2Y-79.0
X169.2Y-103.9
X169.3Y-96.3
X169.479Y-111.3
X169.481Y-83.69
X169.5Y-104.8
X169.7Y-74.7
X170.3Y-95.8
X170.5Y-109.075
X170.6Y-112.5
X171.1Y-103.25
X171.126Y-105.188
X171.2Y-99.3
X171.3Y-96.3
X171.795Y-107.6
X172.1Y-99.8
X172.5Y-84.1
X172.7Y-103.6
X172.77Y-107.17
X172.8Y-104.738
X172.9Y-96.2
X173.3Y-84.4
X173.4Y-80.8
X173.674Y-108.974
X174.043Y-84.697
X174.1Y-78.2
X174.3Y-89.4
X174.4Y-99.051
X174.5Y-96.3
X174.6Y-85.4
X174.7Y-74.1
X174.9Y-88.6
X175.0Y-112.6
X175.2Y-109.6
X176.7Y-83.3
X178.073Y-102.696
X178.1Y-100.2
X178.4Y-93.7
X179.0Y-98.5
X179.626Y-95.3
X179.7Y-107.2
X180.2Y-100.14
T3
X169.7Y-73.5
X170.7Y-73.5
X171.7Y-73.5
X172.7Y-73.5
X173.7Y-73.5
T5
X148.49Y-112.1
X149.76Y-112.1
X151.03Y-112.1
X152.3Y-112.1
X163.16Y-73.8
X164.43Y-73.8
X165.7Y-73.8
X166.97Y-73.8
T6
X135.2Y-96.2
X135.2Y-98.74
X140.825Y-74.1
X142.46Y-111.8
X143.365Y-74.1
X145.0Y-111.8
X157.3Y-74.2
X157.56Y-111.7
X159.84Y-74.2
X160.1Y-111.7
T4
G00X136.8Y-79.075
M15
G01X136.0Y-79.075
M16
G05
G00X136.8Y-87.725
M15
G01X136.0Y-87.725
M16
G05
G00X141.12Y-79.075
M15
G01X140.02Y-79.075
M16
G05
G00X141.12Y-87.725
M15
G01X140.02Y-87.725
M16
G05
M30
